<svg xmlns="http://www.w3.org/2000/svg" viewBox="0 0 720 541.96">
<path d="M691.099 236.578v109.171c9.411 10.954 19.196 21.916 28.901 33.213-2.61.577-8.549.584-14.564.342-4.768-.191-9.547-.153-14.32-.192-4.775-.039-9.55-.047-14.326-.07l-14.326-.068c-4.884-.024-9.767-.047-14.651-.075-4.775-.028-9.55-.084-14.326-.085-4.775-.002-9.55.049-14.326.075-4.775.027-9.55.052-14.326.078l-14.326.076-14.38.079c-18.716 25.847-40.108 49.12-64.138 70.087 0 1.219-.085 2.404.013 3.574 1.011 12.073-8.163 19.993-16.862 21.975-1.575.359-3.197.573-4.81.69a262.82 262.82 0 01-10.719.58c-1.304.041-2.238.654-3.229 1.332-6.713 4.59-13.375 9.259-20.175 13.718-14.332 9.4-29.181 17.929-44.346 25.909-16.309 8.581-32.987 16.381-49.964 23.545-1.093.461-2.197.895-3.499 1.424-8.526-3.815-17.165-7.57-25.713-11.525-24.528-11.348-48.205-24.26-70.947-38.873-1.551-.996-3.111-1.983-4.61-3.054-.933-.667-1.891-.958-3.034-.89-3.68.217-7.364.382-11.046.568-.65.033-1.3.076-1.951.105-6.719.297-13.438.578-20.156.893-3.033.142-6.062.355-9.093.522-.619.034-1.241.005-2.214.005 2.709-4.219 5.592-7.866 8.286-11.642 2.703-3.79 5.46-7.541 8.284-11.435-5.857-4.854-11.678-9.531-17.329-14.404-5.586-4.816-11.107-9.718-16.461-14.789-5.435-5.147-10.724-10.456-15.904-15.861-5.1-5.323-9.983-10.854-15.031-16.37-.677 0-1.432-.071-2.169.011a3112.15 3112.15 0 00-15.82 1.833c-4.626.544-9.251 1.104-13.877 1.646-2.476.29-4.956.541-7.43.842-6.774.824-13.547 1.659-20.318 2.503-5.697.71-11.395 1.417-17.088 2.167-5.799.764-11.588 1.603-17.387 2.364-5.8.762-11.61 1.447-17.411 2.205-5.799.758-11.59 1.581-17.389 2.345-4.082.538-8.173 1.009-12.256 1.538-4.082.528-8.158 1.1-12.239 1.634-2.569.336-5.142.638-8.1 1.003.524-.88.808-1.518 1.231-2.044 8.283-10.322 16.583-20.631 24.877-30.944 1.63-2.027 3.248-4.064 4.876-6.102V282.246c-3.098-3.038-6.193-6.071-9.284-9.107-3.019-2.966-6.04-5.931-9.048-8.908-3.071-3.039-6.18-6.044-9.529-9.437 25.021-3.777 49.605-7.319 74.266-11.05-1.993-8.729-3.942-17.13-5.825-25.545a343.241 343.241 0 01-4.741-25.873c-1.239-8.572-2.401-17.155-3.619-25.896.716-.391 1.323-.809 1.99-1.075 23.947-9.542 48.186-18.273 72.781-25.993 10.12-3.176 20.325-6.08 30.491-9.111.205-.061.402-.152.887-.337 14.876-31.458 36.257-57.977 64.308-78.983 28.034-20.994 59.459-34.015 94.234-39.345A79.197 79.197 0 01348.161 0c-2.294 3.419-5.817 5.779-7.544 9.511.172.18.23.261.307.317.086.062.191.148.285.144 7.471-.279 14.942-.566 22.695-.864l3.856-5.386 1.701 5.878c11.598.681 22.964 2.149 34.051 4.613 1.776-.275 2.853-1.833 4.732-1.945l-.228 2.944c30.893 7.646 58.613 21.429 83.1 41.57 24.425 20.09 43.325 44.525 56.839 73.224 35.948 10.009 71.12 22.145 105.892 36.029-.325 6.143-1.307 12.117-2.095 18.104-.791 6.009-1.841 11.984-2.807 18.16 2.541.264 4.927.783 7.388.8 15.085.103 30.17.205 45.255.339 5.532.049 11.064.182 16.596.287.4.008.799.1 1.461.188-2.188 3.11-4.786 5.571-7.073 8.287-2.376 2.821-4.884 5.53-7.323 8.298-2.366 2.686-4.714 5.388-7.078 8.075-2.361 2.686-4.734 5.361-7.072 8.005zM358.805 519.626c4.987-2.248 9.832-4.354 14.608-6.606 4.396-2.073 8.724-4.292 13.071-6.468 4.348-2.176 8.745-4.264 13.009-6.595 6.243-3.413 12.402-6.982 18.568-10.535 3.735-2.152 7.426-4.383 11.119-6.606a150.474 150.474 0 005.19-3.281c.427-.281.862-.715.224-1.339-.8.135-1.625.363-2.459.399-4.207.182-8.41.036-12.625.583-3.835.498-7.745.192-11.635.634-4.602.523-9.274.072-13.92.685-3.726.492-7.524.204-11.307.597-5.036.523-10.146.097-15.219.726-3.52.436-7.099-.008-10.662.602-2.535.434-5.199.066-7.8.182-2.582.114-5.155.41-7.735.575-1.19.076-2.388.002-3.581.039-5.617.175-11.209.926-16.843.703-.216-.009-.451-.042-.648.024-2.532.845-5.152.464-7.735.563-1.843.071-3.754-.22-5.517.175-1.944.435-3.857.402-5.791.462-1.844.057-3.692.002-5.533.098-.585.031-1.152.391-1.812.632 4.48 4.375 51.667 28.832 65.033 33.751zM150.409 233.425c0-1.265.055-2.348-.011-3.424-.159-2.579-.535-5.156-.532-7.733.004-4.532-.213-9.057.43-13.599.511-3.613.283-7.31.631-10.98.397-4.182 1.144-8.31 1.539-12.485.161-1.697.665-3.36.987-5.044.638-3.334 1.258-6.671 1.921-10.196-.6 0-1.038-.089-1.424.015-1.761.476-3.528.943-5.254 1.528a12330.707 12330.707 0 00-36.914 12.572c-3.636 1.245-7.24 2.583-10.793 3.854-.409 4.165.863 7.91 1.551 11.687.881 4.842 1.667 9.715 2.908 14.498 1.129 4.35 1.976 8.773 3.022 13.146.673 2.815 1.533 5.585 2.198 8.401.229.97.532 1.837 1.314 2.785 2.443-.267 5.006-.487 7.549-.844 2.12-.298 4.203-.893 6.328-1.112 2.779-.286 5.518-1.035 8.357-.755.855.084 1.806.15 2.585-.132 2.38-.859 4.902-.521 7.336-1.041 1.958-.418 4.032-.407 6.272-1.141zm411.564-63.499c2.155 11.173 4.24 21.975 4.802 33.138.789.062 1.412.155 2.036.154 8.233-.006 16.466-.023 24.699-.047.645-.002 1.4.124 1.914-.157 1.239-.677 2.526-.495 3.806-.5 3.575-.013 7.15.01 10.725.017 1.289.003 2.578 0 3.732 0 .375-.405.739-.612.786-.876a901.853 901.853 0 002.179-12.642c.045-.272-.189-.591-.337-1.01-.659-.234-1.357-.476-2.051-.728-8.069-2.923-16.099-5.959-24.216-8.741-8.621-2.954-17.323-5.673-25.998-8.469-.49-.157-1.056-.078-2.077-.139zm-433.75 70.693c-4.458 4.571-7.865 9.441-11.739 13.954.146.715.206 1.363.413 1.96 1.375 3.96 2.842 7.888 4.165 11.865 2.583 7.767 5.875 15.251 8.984 22.808.191.463.316 1.079 1.221.996.341-.674.76-1.416 1.101-2.192 1.212-2.758 2.371-5.54 3.599-8.291 3.164-7.084 6.36-14.155 9.526-21.239.209-.467.27-.999.417-1.567-2.961-2.988-5.889-5.886-8.752-8.847-2.92-3.02-5.778-6.103-8.935-9.447zm87.293 158.779c-2.488.191-4.415.344-6.342.485-.648.047-1.311-.004-1.946.108-3.718.658-7.484.852-11.233 1.216-1.476.144-2.937.438-4.648.701.346.626.484 1.036.749 1.332 2.163 2.418 4.271 4.894 6.545 7.204a1923.547 1923.547 0 0018.613 18.634c2.229 2.202 4.619 4.239 6.938 6.349.683.622 1.387 1.205 2.328 1.303 0-4.191.333-8.23-.099-12.185-.39-3.568-.328-7.119-.507-10.675-.043-.858-.006-1.72-.006-2.724a83405.33 83405.33 0 01-10.392-11.748zm293.859 5.469c3.476-2.768 5.873-5.527 8.401-8.129 2.472-2.545 4.816-5.224 7.084-7.955 2.291-2.76 5.052-5.147 6.956-8.443-.62-.036-1.047-.083-1.473-.082-1.946.004-3.893.021-5.839.035-1.946.014-3.893.032-5.839.043-2.055.012-4.113.102-6.163.002-1.921-.093-3.815.319-5.737.154-.671-.058-1.229.327-1.331 1.219.16.302.346.685.56 1.054 2.378 4.108 3.359 8.547 3.277 13.273-.049 2.689.056 5.381.104 8.829zm-234.404-1.001c.436.916.843 1.909 1.367 2.835.49.866.71 1.919 1.685 2.674 1.136-2.056 2.127-4.026 1.968-6.517l-2.433-2.422c-1.454.843-2.103 2.025-2.587 3.43zm168.675 69.508l-5.026-4.151c.042 3.008-1.283 5.296-.722 8.154 2.071-1.267 4.041-2.232 5.748-4.003z"/>
<path d="M437.843 67.011c-11.836-9.784-24.16-18.874-38.091-26.509 1.06 0 1.671-.124 2.212.019 8.86 2.333 17.613 5.041 26.087 8.514 7.501 3.075 14.753 6.706 21.804 10.739 4.599 2.631 9.087 5.42 13.446 8.424 1.866 1.286 3.741 2.562 5.58 3.886.506.364.898.886 1.482 1.478-1.532 1.309-3.317 1.789-4.862 2.673-1.593.912-3.222 1.765-4.779 2.735-1.559.972-3.09 2-4.554 3.108-1.55 1.173-3.024 2.45-4.5 3.717-1.394 1.196-2.811 2.374-4.102 3.676-1.291 1.302-2.461 2.729-3.643 4.136a110.436 110.436 0 00-3.46 4.295c-1.101 1.45-1.754 3.242-3.336 4.394-1.58-.131-2.828-1.061-4.073-1.858a778.84 778.84 0 01-15.179-9.94c-4.211-2.835-8.347-5.782-12.493-8.713-.788-.557-1.467-1.269-2.021-1.755-.59-1.392.066-2.325.49-3.306.945-2.186.868-2.651-.755-4.291-2.233-2.256-4.967-3.801-7.686-5.363-3.09-1.775-6.19-3.53-9.273-5.317-.231-.134-.352-.456-.495-.651.328-.772.932-.586 1.423-.618 8.074-.519 15.631 1.468 22.896 4.793 6.023 2.756 11.462 6.496 16.879 10.25 2.839 1.968 5.527 4.153 8.312 6.201.305.224.798.194 1.204.281.068.201-.083.68.42.331l-.459-.293c-.356-.658-.618-1.394-1.084-1.961-1.649-2.004-3.38-3.939-5.059-5.919-1.954-2.305-3.81-4.698-5.846-6.926-2.34-2.56-4.828-4.984-7.257-7.462-.904-.922-1.822-1.829-3.094-3.105.95.095 1.482.01 1.871.207 4.718 2.401 9.412 4.848 14.117 7.273 2.593 1.336 5.197 2.653 7.796 3.979.575.951 1.509.942 2.449.915.12.194.103.669.519.251l-.449-.321c-.566-.962-1.215-1.819-2.437-1.967zM304.715 43.753c-6.843 2.283-13.645 4.701-20.18 7.759-6.056 2.834-12.066 5.778-17.849 9.163-5.963 3.49-11.633 7.416-17.267 11.398-.661.468-1.162 1.162-1.829 1.845 2.06.951 3.96 1.723 5.758 2.685 1.994 1.067 3.928 2.255 5.824 3.488 1.372.892 2.456.738 3.845-.14 2.546-1.61 5.193-3.118 7.944-4.337 7.218-3.2 14.16-6.885 20.673-11.342 2.753-1.884 5.275-4.012 7.43-6.656 3.342-4.099 4.916-8.938 6.838-13.875-.579 0-.912-.08-1.187.012zm-89.199 355.645l10.392 11.748c0 1.004-.037 1.866.006 2.724.178 3.556.117 7.107.507 10.675.432 3.955.099 7.994.099 12.185-.941-.097-1.645-.681-2.328-1.303-2.319-2.11-4.709-4.148-6.938-6.349a1923.547 1923.547 0 01-18.613-18.634c-2.275-2.31-4.382-4.786-6.545-7.204-.265-.296-.404-.706-.749-1.332 1.711-.263 3.172-.557 4.648-.701 3.749-.365 7.515-.558 11.233-1.216.635-.112 1.298-.061 1.946-.108 1.927-.141 3.854-.294 6.342-.485zM494.98 96.321c-.534.947-1.482 1.218-2.432 1.307-1.172.11-2.378-.053-3.441.63-2.287-.317-4.417.74-6.684.749-1.364.005-2.729.381-4.089.614-1.15.197-2.287.492-3.444.626-1.057.123-2.091.038-3.155.487-.835.353-1.911.137-2.879.174 1.883-2.746 4.73-4.384 7.412-6.118 2.882-1.863 6.028-3.317 9.062-4.944.965-.517 1.955-.938 3.434-.49.854.967 1.91 2.173 2.978 3.37 1.074 1.204 2.158 2.398 3.238 3.595zm-253.922-2.043a237.491 237.491 0 00-9.093-4.874c-.617-.312-1.454-.192-2.199-.272-1.012 1.076-2.336 1.752-2.635 3.284 2.375.48 4.598 1.752 7.14 1.376a.864.864 0 01.317.037c2.556.623 5.111 1.249 7.667 1.875-.394-.485-.691-1.142-1.197-1.426zm35.28 312.423c.49.866.71 1.919 1.685 2.674 1.136-2.056 2.127-4.026 1.968-6.517l-2.433-2.422c-1.454.843-2.104 2.025-2.588 3.43.436.916.844 1.909 1.368 2.835z" fill="#00b5c9"/>
<path d="M574.499 287.795c-.036-1.191-.104-2.382-.105-3.572-.007-16.382-.054-32.765.038-49.147.018-3.24-.87-5.941-3.047-8.285a154.945 154.945 0 01-3.678-4.133c-.404-.467-.72-1.011-1.293-1.83l49.634-.643c-.771 1.109-1.314 1.892-1.859 2.674-1.759 2.524-1.995 5.243-.822 8.027 1.429 3.392 2.966 6.739 4.501 10.085a41217.35 41217.35 0 0020.35 44.279c.444.965.955 1.899 1.557 3.088.507-.762.355-1.367.356-1.911.011-17.467-.023-34.935.041-52.402.011-2.893-.893-5.279-2.772-7.398a158.945 158.945 0 01-4.003-4.711c-.386-.471-.633-1.056-1.129-1.907l49.484.63c-.42.662-.623 1.09-.922 1.437a499.716 499.716 0 01-4.5 5.141c-1.649 1.863-2.558 3.987-2.448 6.519.056 1.299.009 2.603.009 3.905 0 23.543.002 47.086-.006 70.629 0 1.189-.083 2.379-.128 3.568-4.464-1.471-8.905-3.017-13.397-4.393-5.309-1.626-10.654-3.133-15.998-4.639a452.652 452.652 0 00-12.052-3.245c-5.892-1.487-11.788-2.966-17.719-4.281-1.86-.412-3.713-1.094-5.682-.93l.003.005-.276-1.398c-1.251.636-2.242.628-3.472.273-2.633-.759-5.418-.974-8.119-1.521-2.496-.505-4.974-1.071-7.514-1.335-.834-.087-1.638-.43-2.469-.573-2.19-.376-4.391-.662-6.567-1.157-1.963-.446-3.995-.578-5.996-.849zm-245.455-6.802c.009-11.393.056-22.786-.027-34.178-.023-3.205.873-5.955 2.894-8.394a261.227 261.227 0 004.093-5.059c.295-.374.45-.858.733-1.417-1.1 0-1.966-.055-2.822.011-2.269.173-4.533.402-6.799.601-2.915.256-5.832.494-8.745.761-3.883.357-7.763.751-11.648 1.099-3.346.3-6.7.524-10.045.842-5.608.532-11.208 1.136-16.816 1.663-5.718.537-11.443 1.013-17.163 1.527a487.72 487.72 0 00-7.442.722c-5.386.566-10.769 1.164-16.156 1.722-4.958.513-9.92.975-14.877 1.497-.733.077-1.444.36-2.352.596.442.57.731 1.015 1.09 1.394 1.194 1.26 2.371 2.54 3.632 3.73 1.918 1.809 2.918 4.007 3.044 6.617.042.866.015 1.736.015 2.604.001 12.369-.002 24.739.004 37.108.001 1.517.054 3.035.082 4.552 3.793.086 7.385-1.172 11.088-1.699 4.004-.57 7.946-1.564 11.935-2.259 3.156-.55 6.391-.725 9.492-1.472 1.485-.358 2.986-.298 4.425-.693 2.066-.568 4.197-.741 6.294-1.117 2.001-.359 4.059-.479 6.024-.888 2.204-.459 4.445-.52 6.643-1.011 2.181-.488 4.491-.378 6.691-.808 2.837-.555 5.675-1.016 8.556-1.226.32-.023.648-.054.952-.148 2.476-.764 5.076-.74 7.607-1.042 2.652-.316 5.285-1.091 8.006-.786.204.023.458-.013.625-.12 1.093-.7 2.314-.423 3.488-.491.649-.038 1.378.149 1.936-.085 1.772-.745 3.608-.518 5.429-.578.039-1.194.113-2.385.114-3.575zm-64.265-20.267c10.127-.871 20.256-1.723 30.367-2.577.442 2.556.546 14.479.178 19.218-10.375 5.032-20.934 9.978-31.312 14.942-.324-.185-.431-.218-.495-.29-.069-.078-.136-.192-.136-.291-.023-9.874-.043-19.747-.048-29.621 0-.304.146-.608.249-1.007.394-.129.788-.339 1.197-.374zm291.408 22.848c.006-16.369-.029-32.738.032-49.107.012-3.161-1.142-5.653-3.354-7.792a16.509 16.509 0 00-5.12-3.38c-2.928-1.234-5.98-1.929-9.16-1.856-5.416.124-10.829.326-16.244.495-6.173.193-12.346.385-18.519.581-8.773.278-17.547.527-26.318.859-2.154.082-4.337.256-6.439.704-4.305.916-8.225 2.671-11.273 6.012-2.053 2.25-3.199 4.837-3.196 7.926.013 13.009 0 26.017.002 39.025 0 .323.064.645.098.968 2.272.036 4.616-.265 6.794.207 2.051.444 4.05.442 6.08.469 4.004.054 8.008.034 12.012.047.649.002 1.364-.162 1.936.052 2.203.825 4.468.515 6.717.537.038-2.163.103-4.325.109-6.488.019-6.822.004-13.644.026-20.466.011-3.385 1.092-5.008 4.222-6.095a13.601 13.601 0 013.8-.709c5.19-.234 10.383-.408 15.577-.51 1.389-.027 2.822.13 4.169.466 2.462.614 4.408 2.177 4.347 5.552-.162 8.985-.059 17.975-.049 26.963.001 1.079.076 2.159.117 3.238 1.294.57 2.638.769 4.057.709 1.396-.059 2.901-.277 4.171.142 1.498.494 2.952.427 4.437.504.645.033 1.381-.158 1.92.091 1.337.616 2.724.457 4.102.582 1.369.124 2.719.45 4.087.598.96.104 2.006-.161 2.892.122 2.569.821 5.294.433 7.856 1.174.039-.542.112-1.081.112-1.62zm-441.791 41.08C105.028 306.1 95.64 287.557 86.278 269c-.475-.942-1.239-1.806-1.123-2.982 1.142-2.191 3.274-3.714 4.298-6.317-1.18.062-2.145.04-3.087.176-4.925.71-9.845 1.459-14.767 2.196-5.135.768-10.27 1.541-15.406 2.304-4.922.731-9.847 1.444-14.766 2.195-.265.041-.487.361-.872.663 2.381 2.759 5.137 5.036 7.684 7.609v3.58c0 23.203-.001 46.405.005 69.608 0 1.19.065 2.38.099 3.571 1.268.337 2.345-.407 3.395-.804 6.307-2.381 12.54-4.957 18.833-7.376 3.092-1.188 6.365-1.878 9.357-3.375.539-.269 1.28-.132 1.928-.183l.306-7.359L85.268 338c.63-.1 1.288-.116 1.883-.318 1.512-.513 2.977-1.167 4.494-1.665 6.671-2.19 13.352-4.348 20.033-6.508 1.413-.457 2.84-.872 4.261-1.306-.512-1.184-.963-2.399-1.543-3.549zm88.695-22.87c.012-14.853.007-29.707.007-44.56v-3.156c2.34-2.905 4.583-5.688 6.824-8.473.326-.405.706-.801.144-1.568-15.924 1.564-31.901 3.668-47.899 5.584-.154.019-.284.245-.502.444 1.132 2.196 3.701 3.244 4.692 5.516-.229.602-.399 1.117-.618 1.611-5.21 11.775-10.431 23.545-15.638 35.321-4.199 9.496-8.382 18.998-12.572 28.497 1.179.046 2.289-.055 3.477-.395 7.053-2.02 14.143-3.917 21.24-5.78 5.552-1.457 11.13-2.816 16.703-4.195 5.157-1.276 10.301-2.613 15.49-3.742 2.802-.61 5.569-1.501 8.48-1.547.06-1.184.171-2.371.172-3.557zm177.942-25.036c.017-6.077.085-12.155-.002-18.231-.041-2.842 1.246-4.714 3.577-6.081 1.828-1.072 3.849-1.434 5.906-1.601 3.242-.262 6.488-.474 9.736-.651 5.848-.319 11.698-.596 17.546-.894.65-.033 1.297-.108 1.947-.134 3.575-.143 7.149-.325 10.725-.398 2.183-.045 4.302.43 6.361 1.169 2.343.841 4.693 1.663 7.048 2.469.883.303 1.79.539 2.828.848.082-.627.183-1.043.184-1.459.011-4.558-.04-9.116.021-13.673.044-3.301-1.382-5.826-3.798-7.918-2.01-1.742-4.383-2.766-6.888-3.538-2.739-.844-5.56-.932-8.38-.793-7.688.379-15.375.788-23.059 1.25-6.71.404-13.414.89-20.12 1.351-6.598.453-13.197.883-19.79 1.393-3.838.297-7.429 1.46-10.701 3.517-4.559 2.865-7.234 6.782-6.837 12.39.015.216.002.434.002.651 0 10.961-.005 21.921.008 32.882.001 1.078.112 2.156.172 3.234.537.023 1.125.202 1.601.043 2.397-.8 4.863-.562 7.312-.621.428-.01.933.079 1.268-.112 1.313-.75 2.727-.451 4.103-.509 1.396-.059 2.901.265 4.166-.155 1.708-.568 3.381-.427 5.076-.5 1.289-.056 2.683.267 3.848-.124 2.014-.677 4.029-.407 6.041-.556.034-1.084.096-2.166.099-3.249zm-3.76 148.459c-3.259.875-6.597.596-9.911.727-1.585.063-3.155.465-4.741.58-1.503.109-3.091-.243-4.511.119-2.338.596-4.725.236-7.004.662-2.348.439-4.726.218-7.001.654-2.349.45-4.751.143-6.996.669-2.573.603-5.117.401-7.67.58-.136-.963-.349-1.922-.397-2.889-.309-6.269-.571-12.541-.873-18.811-.088-1.836-.3-3.666-.369-5.502-.056-1.492-.644-2.705-1.611-3.791-.702-.789-1.369-1.609-2.289-2.696 6.294-1.201 12.329-.76 18.285-1.285 6.139-.541 12.319-.638 18.481-.903 6.04-.26 12.069-.855 18.067-.744.496.667.067 1.065-.216 1.482-.365.537-.712 1.092-1.131 1.585-.976 1.145-1.277 2.487-1.207 3.935.208 4.323.458 8.645.644 12.969.18 4.218.302 8.439.45 12.659zm-32.84-18.829l.879 16.103c2.512-.609 12.907-5.619 15.209-7.326-.097-1.544-.175-3.153-.304-4.757-.127-1.585.193-3.223-.514-4.923-4.977.348-9.956.037-15.27.903zm151.199 13.641c.065-3.023-1.467-4.918-4.166-5.909-1.094-.402-2.315-.667-3.473-.647-3.792.065-7.58.296-11.371.453-3.25.135-6.499.322-9.751.363-2.627.033-3.591-.887-3.729-3.409-.137-2.49-.152-4.987-.252-7.479-.061-1.515.67-2.481 2.031-2.971.703-.253 1.458-.451 2.199-.488 6.063-.303 12.128-.554 18.191-.841 1.873-.089 3.656.251 5.406.903 1.192.445 2.321 1.135 3.707 1.164.106-.382.272-.682.257-.973-.109-2.163-.414-4.33-.351-6.486.098-3.326-2.22-5.414-4.753-6.215a12.13 12.13 0 00-4.487-.556c-3.028.197-6.056.394-9.087.543-6.063.299-12.128.551-18.191.856-1.73.087-3.463.228-5.18.45-2.107.272-3.892 1.199-5.343 2.802-1.304 1.441-1.287 3.142-1.195 4.897.226 4.33.435 8.66.659 12.99.201 3.896.417 7.792.617 11.688.057 1.11.232 2.157 1.202 2.88.43-.04.86-.115 1.29-.115 7.358.007 14.716.023 22.074.041.54.001 1.176-.143 1.604.086 1.439.773 2.962.435 4.452.53 3.424.218 6.902-.482 10.279.619.392.128.86.028 1.293.028 2.056 0 4.111-.002 6.167-.003-.038-1.734-.136-3.469-.099-5.201zm-222.055 14.99c-3.825-7.888-7.664-15.769-11.486-23.658-1.503-3.103-2.972-6.224-4.47-9.366l1.975-3.151c-3.211-.345-20.541.654-23.342 1.349.854 1.696 2.494 2.726 3.598 4.629.328 5.821.706 11.979 1.015 18.141.326 6.493.584 12.989.878 19.484.015.322.099.64.151.96 2.415.405 4.647-.544 6.95-.951 3.043-.537 5.98-1.684 9.133-1.579v-2.832l1.697 2.306c1.854-.46 3.689-1.181 5.566-1.317 2.788-.202 5.418-1.091 8.155-1.471.34-.047.624-.495.934-.757-.248-.596-.472-1.206-.754-1.787zm42.793-7.832c-.157-3.241-.357-6.479-.55-9.718-.135-2.266-.321-4.53-.421-6.798-.148-3.348-.24-6.698-.346-9.779.967-2.003 2.488-3.315 3.287-5.167-4.519-.111-21.129.845-23.285 1.335.139 1.285 1.59 1.734 1.917 3.119-.068.229-.166.642-.31 1.037-2.999 8.217-6.013 16.428-9 24.65-1.179 3.247-2.299 6.515-3.445 9.774.431.003.929.15 1.283-.013 2.095-.964 4.497-.211 6.569-1.229 1.54.233 2.936-.49 4.414-.66 2.223-.256 4.506-.244 6.658-.774 1.696-.417 3.422-.289 5.06-.687 2.705-.658 5.49-.631 8.194-1.2-.005-1.297.038-2.596-.025-3.89zm115.793-4.403c.749-4.259 1.467-8.524 2.223-12.782.793-4.47 1.667-8.926 2.406-13.405.239-1.446.786-2.669 1.647-3.816.697-.929 1.547-1.786 1.832-2.961-.287-.15-.465-.327-.633-.318-7.245.374-14.49.762-21.734 1.163-.278.015-.548.169-1.007.319.86 1.003 1.674 1.86 2.381 2.798.938 1.244 1.359 2.562 1.027 4.231-.969 4.876-1.781 9.784-2.607 14.688-.629 3.732-1.185 7.476-1.774 11.214 3.101.002 6.201.007 9.302.005.641 0 1.37.169 1.907-.074 1.543-.698 3.131-.495 4.718-.506.106-.184.277-.358.312-.556zm-19.553-.746c-2.046-7.159-4.018-14.341-6.213-21.455-.906-2.937-.94-5.486 1.318-7.797.31-.318.394-.856.666-1.485-7.941-.162-15.544.795-23.594.867.669.906 1.016 1.57 1.536 2.045 1.994 1.821 3.084 4.091 3.707 6.683.604 2.517 1.359 4.998 2.082 7.485 1.567 5.388 3.156 10.768 4.736 16.152.972 0 2.046.268 2.897-.054 1.905-.721 3.83-.462 5.75-.506 2.486-.057 4.975-.027 7.462-.035-.114-.633-.171-1.283-.347-1.9zm31.494-260.2c-1.141.489-2.074.343-2.976-.071-1.276-.586-2.57-1.148-3.789-1.839-7.33-4.156-15.255-6.564-23.491-8.07-.636-.116-1.291-.132-1.937-.194l-1.865-.179c-.752-1.197.166-1.904.54-2.843 1.66-.502 3.376.015 5.087-.165l.705 1.133 1.524-.829 5.267 1.121 1.048 1.397c1.202-.706 2.388-.448 3.618.135 1.657.786 3.368 1.465 5.077 2.136.443.174.965.147 1.92.275-1.976-2.657-4.78-3.228-6.924-4.874l-.184-1.488c-.182 0-.387-.062-.518.01-.806.448-1.67.537-2.516.272-1.323-.413-2.615-.928-3.929-1.403.092-1.186.62-1.837 1.573-1.848a13.809 13.809 0 013.207.358c3.174.725 6.127 2.041 9.092 3.376 5.057 2.277 7.772 6.352 9.313 11.419.202.67.111 1.43.158 2.171zm-8.387-8.175l-.676.271.649.768 1.146.441c.193.215.363.592.671.148.029-.042-.242-.292-.374-.445l-1.416-1.183zM408.843 49.856c-.459-.695-.924-1.24-2.022-.96.489.968 1.064 1.288 2.022.96zm-33.058 40.677c-.723-.207-.853-.713-.688-1.367l.043.06c-1.03-.499-1.076-1.408-1.056-2.493l2.185-.311c-.561-1.354-1.867-1.603-2.766-2.334-.846-.688-1.528-1.735-2.944-1.782-.093 3.571.758 6.632 3.219 9.039 1.248 1.221 2.621 2.453 5.102 2.334-.721-.644-1.093-.991-1.48-1.319-.643-.547-1.51-.892-1.663-1.873l.048.046z" fill="#f6f6f6"/>
<path d="M358.805 519.626c-13.366-4.919-60.553-29.376-65.032-33.753.66-.24 1.227-.601 1.812-.632 1.841-.097 3.69-.041 5.533-.098 1.934-.06 3.847-.027 5.791-.462 1.763-.395 3.673-.104 5.517-.175 2.583-.099 5.203.282 7.735-.563.197-.066.432-.032.648-.024 5.633.223 11.226-.528 16.843-.703 1.193-.037 2.391.037 3.581-.039 2.58-.164 5.153-.461 7.735-.575 2.601-.115 5.265.252 7.8-.182 3.563-.61 7.142-.166 10.662-.602 5.073-.629 10.182-.203 15.219-.726 3.783-.393 7.581-.105 11.307-.597 4.646-.614 9.317-.162 13.92-.685 3.89-.442 7.8-.136 11.635-.634 4.215-.547 8.418-.401 12.625-.583.834-.036 1.66-.264 2.459-.399.638.623.203 1.058-.224 1.339a149.517 149.517 0 01-5.19 3.281c-3.694 2.223-7.384 4.455-11.119 6.606-6.166 3.552-12.325 7.122-18.568 10.535-4.264 2.331-8.661 4.419-13.009 6.595-4.347 2.176-8.675 4.394-13.071 6.468-4.777 2.254-9.622 4.36-14.609 6.608zM150.398 230.001c-.159-2.579-.535-5.156-.532-7.733.004-4.532-.213-9.057.43-13.599.511-3.613.283-7.31.631-10.98.397-4.182 1.144-8.31 1.539-12.485.161-1.697.665-3.36.987-5.044.638-3.334 1.258-6.671 1.921-10.196-.6 0-1.038-.089-1.424.015-1.761.476-3.528.943-5.254 1.528a12330.707 12330.707 0 00-36.914 12.572c-3.636 1.245-7.24 2.583-10.793 3.854-.409 4.165.863 7.91 1.551 11.687.881 4.842 1.667 9.715 2.908 14.498 1.129 4.35 1.976 8.773 3.022 13.146.673 2.815 1.533 5.585 2.198 8.401.229.97.532 1.837 1.314 2.785 2.443-.267 5.006-.487 7.549-.844 2.12-.298 4.203-.893 6.328-1.112 2.779-.286 5.518-1.035 8.357-.755.855.084 1.806.15 2.585-.132 2.38-.859 4.902-.521 7.336-1.041 1.96-.419 4.034-.407 6.274-1.141-.002-1.265.053-2.348-.013-3.424zm304.373-55.861a5.195 5.195 0 00-1.156 1.137c-2.466 3.292-5.113 6.423-8.086 9.273-.302.29-.496.693-.701.987 0 7.806-.008 15.512.013 23.218.002.71.191 1.42.317 2.296 3.553 0 6.915.022 10.276-.02a4.664 4.664 0 001.852-.441c2.836-1.321 5.78-2.33 8.806-3.092 1.662-.418 3.348-.957 5.036-1.009 5.186-.16 10.337-.998 15.542-.757 1.406.065 2.889.226 4.215-.123 1.94-.511 3.864-.406 5.799-.436 4.015-.063 8.031-.069 12.047-.101.76-.006 1.576.149 2.268-.076 2.125-.69 4.292-.426 6.443-.473 2.604-.057 5.21-.036 7.814-.052.651-.004 1.38.17 1.938-.063 1.878-.783 3.829-.512 5.756-.609.443-.022.859-.092.972-.83-.246-.311-.541-.749-.901-1.125-4.264-4.466-8.714-8.722-13.698-12.401-3.56-2.628-7.244-5.073-11.098-7.217-9.157-5.095-18.726-9.285-28.781-12.281-5.443-1.622-10.948-3.038-16.553-4.582-2.323 3.624-4.875 6.522-8.12 8.777zm37.777-76.512c-1.172.11-2.378-.053-3.441.63-2.287-.317-4.417.74-6.684.749-1.364.005-2.729.381-4.089.614-1.15.197-2.287.492-3.444.626-1.057.123-2.091.038-3.155.487-.835.353-1.911.137-2.879.174-4.769 3.714-8.094 8.568-11.073 13.939.652.573 1.248 1.181 1.925 1.676 2.432 1.778 4.904 3.501 7.338 5.277 1.833 1.338 2.326 3.332 1.393 5.428-.574 1.289-1.219 2.52-2.327 3.471-.47.404-.786.986-1.19 1.511l1.112 3.47c1.315.361 2.538.73 3.778 1.027 1.254.3 2.535.488 3.784.803 1.247.314 2.46.763 3.706 1.081 1.248.318 2.532.495 3.775.831 1.139.308 2.232.785 3.366 1.115 1.236.359 2.503.613 3.745.953 1.24.339 2.472.711 3.698 1.1 1.229.39 2.437.85 3.671 1.219 1.232.369 2.524.564 3.72 1.019 1.209.46 2.39.919 3.667 1.206 1.245.279 2.402.933 3.616 1.373 1.211.439 2.456.784 3.664 1.231 1.21.447 2.39.973 3.587 1.457 1.096.443 2.201.868 3.295 1.317 1.194.489 2.379.998 3.57 1.494 1.191.496 2.397.96 3.573 1.488 1.18.53 2.335 1.118 3.497 1.689 2.137 1.053 2.136 1.056 3.475 1.073 0-.206.061-.435-.009-.614-2.112-5.412-4.212-10.827-6.724-16.073a206.628 206.628 0 00-9.358-17.368c-2.335-3.877-4.908-7.596-7.591-11.237-2.49-3.378-5.004-6.742-7.618-10.024-1.536-1.929-3.287-3.687-4.942-5.522-.534.95-1.481 1.221-2.431 1.31zm-94.01 200.959c-.018 9.11-.022 18.219-.012 27.329.001.505.158 1.01.266 1.654 1.124 0 2.088-.049 3.045.008 4.552.272 9.042-.594 13.577-.697 4.097-.093 8.19-.385 12.281-.636.624-.038 1.256-.272 1.845-.511a355.285 355.285 0 007.44-3.095c.874-.377 1.69-.887 2.56-1.351 0-15.629.001-31.131-.002-46.633 0-.541-.03-1.083-.051-1.624a.81.81 0 00-.058-.315c-.046-.094-.139-.164-.212-.245-2.839-.462-10.883-.423-13.272.092.092.506.121 1.037.288 1.52 2.458 7.112 4.277 14.385 5.6 21.789.565 3.162 1.207 6.31 1.78 9.47.115.634.133 1.302.084 1.945-.043.561.352 1.245-.482 1.791-1.794-2.947-3.461-5.937-5.375-8.76-1.871-2.759-3.786-5.502-6.106-7.932-2.387-2.501-4.598-5.18-7.094-7.564-2.411-2.304-5.119-4.293-7.638-6.489-4.379-3.818-6.734-5.533-8.367-5.882-.042.655-.115 1.289-.117 1.924-.01 3.253.05 6.508-.023 9.76-.035 1.567.307 2.947 1.054 4.328 2.414 4.46 4.172 9.211 5.955 13.945.152.404.02.916.02 1.755l-6.672-7.599c-.168 1.056-.313 1.539-.314 2.023zm168.237-95.523c.789.062 1.412.155 2.036.154 8.233-.006 16.466-.023 24.699-.047.645-.002 1.4.124 1.914-.157 1.239-.677 2.526-.495 3.806-.5 3.575-.013 7.15.01 10.725.017 1.289.003 2.578 0 3.732 0 .375-.405.739-.612.786-.876a901.853 901.853 0 002.179-12.642c.045-.272-.189-.591-.337-1.01-.659-.234-1.357-.476-2.051-.728-8.069-2.923-16.099-5.959-24.216-8.741-8.621-2.954-17.323-5.673-25.998-8.469-.49-.158-1.057-.079-2.078-.14 2.156 11.175 4.241 21.976 4.803 33.139zM234.587 93.829a.867.867 0 00-.317-.037c-2.542.377-4.764-.896-7.14-1.376-3.895 3.156-6.888 7.164-10.122 10.924-2.449 2.848-4.507 6.032-6.76 9.05-4.07 5.452-7.639 11.228-10.923 17.172-2.088 3.779-3.934 7.692-5.866 11.556-2.459 4.917-4.442 10.031-6.281 15.205-.163.458-.221.796.273 1.127.26-.088.575-.156.855-.294 8.02-3.969 16.299-7.301 24.789-10.122.793-.263 1.496-.797 2.133-1.146 1.744-7.903 4.667-15.172 7.91-22.324 2.547-5.618 5.728-10.862 9.352-15.848 1.779-2.447 3.583-4.855 5.696-7.042 1.483-1.535 2.721-3.305 4.069-4.97l-7.668-1.875zm-19.071 121.476c-.272-2.777-.862-5.538-1.474-8.233-.789-3.475-1.046-7.002-1.667-10.484-.527-2.956-.566-6.001-.776-9.009-.056-.807-.227-1.489-1.061-1.986-1.837.497-3.363 1.743-5.014 2.72-5.105 3.022-9.906 6.502-14.705 9.978-3.938 2.852-7.6 6.041-11.307 9.182-5.963 5.052-11.237 10.721-15.908 16.967-.08.107.068.385.153.793 1.655-.185 3.286-.617 4.939-.92 3.061-.56 6.122-1.127 9.2-1.583 2.341-.346 4.726-.408 7.056-.804 3.614-.614 7.258-.864 10.9-1.164 2.684-.221 5.366-.515 8.055-.617 3.983-.15 7.987.077 12.094-.983.665-1.455-.361-2.588-.485-3.857zm195.787-30.835c-2.476-1.036-4.983-2-7.457-3.04-3.074-1.292-6.083-2.75-9.204-3.913-2.373-.884-4.703-2.26-7.734-1.545-2.888 3.078-5.241 6.782-7.442 10.624-1.639 2.861-1.357 5.914-.887 8.849.33 2.063 1.424 4.07 2.469 5.938 1.416 2.531 3.084 4.924 4.702 7.337.595.887 1.28 1.744 1.926 2.007 1.578-.138 2.746-.345 3.91-.326 6.059.103 12.06-1.023 18.125-.805 1.348.049 1.811-.566 1.861-2.075.061-1.842-.207-3.748.184-5.511.455-2.048.344-4.078.506-6.113.171-2.142.425-4.277.614-6.418.112-1.271.167-2.546.259-4.002-.539-.3-1.156-.724-1.832-1.007zm-283.08 56.149c3.157 3.343 6.015 6.426 8.936 9.448 2.863 2.961 5.791 5.859 8.752 8.847-.147.567-.209 1.1-.417 1.567-3.166 7.084-6.361 14.154-9.526 21.239-1.229 2.751-2.387 5.533-3.599 8.291-.341.776-.76 1.518-1.101 2.192-.905.084-1.03-.532-1.221-.996-3.11-7.557-6.401-15.041-8.984-22.808-1.323-3.977-2.79-7.905-4.165-11.865-.207-.597-.267-1.245-.413-1.96 3.873-4.513 7.28-9.383 11.738-13.955zm389.553 156.119c2.472-2.545 4.816-5.224 7.084-7.955 2.291-2.76 5.052-5.147 6.956-8.443-.62-.036-1.047-.083-1.473-.082-1.946.004-3.893.021-5.839.035-1.946.014-3.893.032-5.839.043-2.055.012-4.113.102-6.163.002-1.921-.093-3.815.319-5.737.154-.671-.058-1.229.327-1.331 1.219.16.302.346.685.56 1.054 2.378 4.108 3.359 8.547 3.277 13.273-.047 2.689.059 5.38.107 8.828 3.473-2.767 5.87-5.527 8.398-8.128zm-79.156 72.485c.042 3.008-1.283 5.296-.722 8.154 2.071-1.268 4.041-2.232 5.747-4.003l-5.025-4.151zM375.096 89.166c.84.312.958.547.688 1.367l-.049-.047c.69-.561 1.426.094 2.111-.081.365-.094.915-.361.958-.619.073-.446-.03-1.141-.336-1.383-.625-.496-1.433-.762-1.979-1.03-1.137.368-1.149 1.168-1.35 1.853l-.043-.06z" fill="#4b868e"/>
<path d="M311.966 73.587c-.441-1.391.322-2.516.889-3.64 2.325-4.615 5.109-8.944 8.244-13.052.509-.667.907-1.419 1.356-2.132l.36-.602-.611.361c-1.541.381-2.545 1.579-3.723 2.493-5.332 4.141-9.99 8.961-14.19 14.237-4.584 5.758-9.203 11.486-13.234 17.661-4.219 6.462-7.746 13.239-9.859 20.703-1.387 4.9-2.37 9.859-2.553 14.966-.07 1.942-.39 3.878-.403 5.819-.077 11.739 2.479 22.901 7.246 33.623 4.076 9.167 9.696 17.348 15.611 25.366.634.859 1.17 1.79 1.751 2.687l-.087.079c-1.35.354-2.269-.573-3.227-1.195-3.37-2.187-6.567-4.627-9.414-7.46-3.689-3.67-7.236-7.481-10.867-11.21-.658-.676-1.116-1.644-2.236-1.759-.557.765-.116 1.426.197 2.097 2.977 6.384 6.115 12.677 10.031 18.557 5.061 7.599 10.699 14.724 17.141 21.207 1.285 1.293 2.469 2.685 3.894 4.244-1.242.284-2.147.604-3.073.685-9.052.79-18.107 1.54-27.203 2.305l-1.708-2.001c-1.143.376-.5 1.624-1.387 2.327-2.55.253-5.335.532-8.121.804-2.792.273-5.585.538-8.475.816-1.551-2.528-2.181-5.268-3.003-7.92a142.147 142.147 0 01-4.32-17.936c-.771-4.47-1.427-8.965-1.623-13.517-.167-3.893-.694-7.774-.465-11.681.519-8.848.762-17.726 2.912-26.398.253-1.021.239-2.109.366-3.335-3.036 1.89-9.892 12.16-12.983 19.051-2.468 5.5-4.52 12.426-6.376 22.354-.361-.585-.774-.961-.825-1.382-.329-2.683-.447-5.398-.881-8.062-.91-5.589-.34-11.257-1.034-16.854-.146-1.175-.064-2.387-.009-3.578.146-3.137.287-6.275.517-9.406a116.372 116.372 0 012.118-15.077c1.253-6.047 3.12-11.907 5.65-17.55 1.786-3.983 4.097-7.625 7.002-10.884 6.122-6.867 13.357-12.314 21.301-16.905 7.695-4.447 15.594-8.485 23.597-12.339 4.098-1.974 8.103-4.116 11.758-6.877 3.561-2.69 6.138-5.932 7.451-10.317 1.702-5.687 3.6-11.334 5.776-16.855 3.096-7.858 7.777-14.737 13.964-20.528 1.179-1.104 2.55-2.006 3.86-2.964.217-.159.576-.123.834-.17.52.568.274 1.11.059 1.567-1.302 2.764-1.453 5.59-.759 8.55a90.31 90.31 0 011.447 7.635c.456 3.138.367 6.19-.975 9.23-2.885 6.536-5.609 13.147-9.401 19.227-3.106 4.979-6.871 9.466-10.826 13.789-.414.452-1.003.744-1.511 1.11l.03.036zm-35.326 96.112l-.176-.238-.018.462.194-.224zM386.81 43.341c.772-.292 1.271-.596 1.304.299.997-.389 1.9.027 2.816.331 4.62 1.535 9.237 3.08 13.864 4.593.513.168 1.142.724 1.621-.121-5.642-5.122-25.548-13.405-37.051-13.455-.997.983-.649 2.385-1.182 3.647 4.027.893 7.984 1.432 11.977 3.673-4.263.363-8.045-1.251-12.036.304 2.631.824 4.97 1.586 7.327 2.289 6.779 2.022 13.189 4.887 19.306 8.422.474.274 1.247.411 1.018 1.499-.745-.145-1.466-.268-2.179-.428a22.129 22.129 0 00-9.664-.035c-.845.184-1.678.431-2.507.682-.829.251-1.64.561-2.469.811s-1.676.441-2.506.688c-.706.211-1.573-.19-2.288.765 1.18.122 2.239.366 3.282.313 2.381-.12 4.773-.26 7.126-.616 4.47-.677 8.861-.226 13.235.644 6.211 1.235 12.03 3.546 17.591 6.543.538.29 1.103.533 1.655.797-.113-.775-.43-1.289-.871-1.649-3.276-2.671-6.51-5.4-9.884-7.942-5.29-3.985-11.105-7.163-16.741-10.615-.511-.313-1.274-.4-1.385-1.2-.357-.061-.715-.125-1.359-.239z" fill="#bbb"/>
<path d="M380.632 64.16l-.899-2.011c.283-.078.54-.233.638-.163 4.954 3.522 10.44 6.148 15.607 9.309 1.831 1.12 3.819 2.066 5.14 3.959-.509 1.533-1.492 2.323-3.137 2.237-.634-.033-1.271-.005-2.24-.005.512.779.758 1.394 1.203 1.785 1.544 1.359 3.083 2.745 4.758 3.932 6.714 4.758 13.477 9.449 20.226 14.158 6.136 4.281 12.508 8.17 19.246 11.434 5.782 2.801 11 6.474 16.155 10.257 1.833 1.345 3.71 2.632 5.543 3.977.948.696 1.845 1.461 2.901 2.303-.498.885-.815 1.692-1.341 2.325-.786.945-1.884.991-2.884.227-.511-.39-.952-.873-1.697-1.569.095.811.06 1.332.224 1.781 1.444 3.968 2.567 8.008 3.186 12.197 1.011 6.843.929 13.578-1.513 20.16-1.111 2.995-2.877 5.566-4.917 7.974-.641.756-1.441 1.298-2.517 1.534-1.567-.392-2.446-1.616-3.16-2.972-1.512-2.871-2.967-5.771-4.466-8.649-1.1-2.11-2.188-4.229-3.363-6.298-1.779-3.133-4.633-5.12-7.673-6.839-5.011-2.833-10.27-5.076-15.887-6.428-1.145-.276-2.273-.621-3.447-.945l-.311-2.309c-1.407.629-1.876 1.929-2.609 2.954-2.081 2.908-3.96 5.929-5.197 9.328-.815 2.238-1.758 4.467-4.964 5.663 2.4.366 3.961.701 5.539.83 11.063.907 21.406 4.094 30.982 9.719 2.52 1.48 4.995 3.036 7.475 4.582 1.573.98 2.933 2.208 4.141 3.671-.266 1.264-1.053 2.146-1.857 3.017-1.995 2.162-4.249 3.994-6.706 5.626-2.872 1.908-5.9 1.928-9.034 1.092-2.774-.74-5.079-2.42-7.321-4.109-3.892-2.933-7.699-5.981-11.514-9.016-2.314-1.841-3.973-4.283-5.836-6.537-.315-.381-.737-.673-1.349-1.22 0 .979-.05 1.607.014 2.222.064.611.245 1.209.396 1.917-1.244.556-2.33.275-3.289-.106-1.705-.677-3.345-1.524-4.989-2.348-1.66-.832-2.208-2.234-2.061-4.045.126-1.555.784-2.905 1.341-4.311.258-.651.985-1.237.453-2.103-1.09.107-1.501 1.111-2.213 1.706-1.993 1.664-3.882 3.462-5.953 5.02-3.703 2.788-7.937 4.357-12.52 5.012-.746.107-1.479.303-2.222.439-2.82.514-5.481.332-8.234-.808-10.376-4.296-19.995-9.862-28.83-16.761-6.178-4.825-11.851-10.185-15.914-16.995-1.1-1.844-1.993-3.837-2.769-5.843-1.483-3.835-1.792-7.772-.552-11.762.093-.299.039-.644.054-.967.567-.302.745-.692.159-1.398l-.324 1.257c-.362.371-.838.682-1.07 1.122-2.621 4.98-2.642 10.141-1.089 15.44 1.269 4.331 3.517 8.126 6.14 11.736 3.341 4.597 7.454 8.455 11.727 12.148 5.594 4.835 11.678 8.972 18.141 12.559.266.147.458.432.669.667.034.038-.018.153-.044.325-.296-.034-.63.006-.89-.114-10.963-5.039-20.741-11.735-28.755-20.828-4.627-5.25-8.348-11.055-10.224-17.892-1.882-6.86-1.5-13.507 2.06-19.787.85-1.499 1.948-2.859 2.953-4.268.313-.439.728-.816.493-1.432.548.083.782-.12.622-.683l.553-.066a60.154 60.154 0 01-.19-.35l-.319.466-.668.63c-.458.254-1.023.41-1.356.777-2.627 2.903-4.935 6.016-6.251 9.768-1.661 4.734-1.69 9.49-.493 14.341 1.533 6.213 4.623 11.612 8.35 16.713.44.602.794 1.268 1.188 1.904-.141.136-.28.274-.419.413-1.258-.153-2.026-1.113-2.969-1.791-.849-.611-1.454-1.599-2.62-1.728-.222-.663-.688-.824-1.32-.638.098-.532-.208-.659-.651-.649-.037-.276.048-.721-.467-.34l.517.293.653.649c.227.643.623.938 1.309.632.002.302-.108.675.03.891.286.45.699.821 1.066 1.218 6.028 6.522 12.153 12.958 18.062 19.587 7.276 8.162 14.425 16.439 21.519 24.76 2.592 3.04 4.922 6.309 7.276 9.544 2.737 3.761 5.372 7.596 8.04 11.407.431.616.807 1.271 1.342 2.12-.644.273-1.164.654-1.713.701-3.771.322-7.551.536-11.321.861-3.442.297-6.874.699-10.313 1.033-1.077.105-2.162.124-3.242.204-3.45.258-6.902.497-10.349.797-4.196.365-8.386.792-12.581 1.172-.642.058-1.295.008-2.021.008-1.527-1.326-3.076-2.673-4.628-4.017-3.684-3.189-7.372-6.374-11.047-9.573-.232-.202-.368-.513-.549-.773l-.051.046c.519.079 1.141 0 1.543.26 5.231 3.384 11.123 5.266 16.879 7.441 2.521.953 5.132 1.676 7.723 2.433.794.232 1.656.231 2.994.402-.635-.79-.884-1.245-1.257-1.542-5.948-4.731-11.625-9.753-16.792-15.341-8.262-8.936-15.81-18.408-21.796-29.045-4.322-7.681-7.618-15.795-9.229-24.471-1.17-6.297-1.271-12.67-.437-19.078.558-4.291 1.148-8.558 2.126-12.774 2.43-10.48 7.003-19.972 13.29-28.648 2.158-2.979 4.552-5.787 6.842-8.671.472-.594.958-1.178 1.883-1.496-.129.527-.175 1.093-.4 1.574-1.102 2.349-2.353 4.632-3.365 7.017-2.581 6.085-4.216 12.474-5.839 18.86-1.144 4.501-2.223 9.019-2.865 13.626-.052.372-.007.758-.007 1.604.469-.619.716-.821.803-1.078 2.503-7.377 5.39-14.6 8.641-21.677 4.698-10.227 10.59-19.629 18.929-27.335.637-.589 1.246-1.218 1.94-1.732.403-.299.949-.404 1.493-.622 1.657 3.176.937 6.485 1.183 9.966.482-.442.964-.688 1.123-1.069.327-.787.648-1.639.675-2.475.06-1.838.241-3.755-.179-5.508-.768-3.206-.187-6.239.571-9.278 1.031-4.13 2.896-7.922 5.191-11.481 2.758-4.277 5.62-8.479 8.831-12.448 2.075-2.565 4.483-4.69 7.158-6.558a270.97 270.97 0 015.091-3.49c2.262-1.504 4.427-3.115 6.303-5.099.486-.514 1.122-.887 1.964-1.536.309 2.025.811 3.644.834 5.36.042 3.037.116 6.073.14 9.11.049 6.055-1.585 11.756-3.805 17.305-1.084 2.708-2.411 5.318-3.564 8-.767 1.784-1.489 3.594-2.096 5.437-.298.904-.397 1.909-.396 2.868.001 2.283.841 2.97 3.541 3.042.291-.797-.491-1.046-.818-1.483-.878-1.172-1.006-2.376-.291-3.636a3.643 3.643 0 013.875-1.76 23.222 23.222 0 017.515 2.937c2.499 1.514 4.93 3.14 7.399 4.704.451.286.944.504 1.418.754l.759.542c.213.199.402.441.649.578.104.058.331-.105.502-.167-.094-.159-.153-.364-.29-.466-.154-.115-.378-.136-.571-.199-.199-.25-.391-.498-.583-.747zm-57.577 34.847c-.196.08-.743-.213-.431.406l.376-.456c.075-.155.736-.005.238-.458l-.183.508zm106.103 10.402c-.04-.092-.064-.197-.125-.271-.034-.041-.13-.03-.198-.042l.366.266c.112.391.106.893.353 1.158 3.081 3.293 5.045 7.226 6.688 11.365.794 2 1.706 3.956 2.609 5.911.402.871.857 1.743 1.91 2.13.05-.347.164-.665.125-.962-.126-.959-.316-1.909-.47-2.864-.539-3.36 1.397-6.048 4.813-6.369 1.921-.181 3.878.04 5.82.045.447.001 1.023.329 1.396-.424-.684-.877-1.633-1.385-2.604-1.805-2.668-1.153-5.321-2.363-8.055-3.339-4.054-1.448-8.208-2.625-11.994-4.75-.166-.095-.42-.037-.634-.049zm-64.143-88.844c-.637.525-1.004.749-1.27 1.059-5.076 5.924-10.171 11.834-15.194 17.803-2.376 2.824-4.409 5.898-6.007 9.24-.654 1.367-1.058 2.815-1.504 4.265-1.315 4.268 1.248 8.148 4.441 9.782 2.845 1.456 5.867 2.166 9.028 2.344.593.033 1.197-.12 1.75-.182 0-.409.072-.657-.011-.833-1.277-2.725-1.117-5.492-.109-8.215a258.17 258.17 0 014.039-10.25c2.642-6.295 5.196-12.603 5.314-19.578.671-1.745.181-3.398-.477-5.435zm-3.087 66.254c.543.684.755 1.063 1.065 1.325 3.48 2.931 7.151 5.605 11.092 7.878 3.845 2.218 7.87 4.05 12.176 5.21.812.219 1.606.602 2.468.007-.138-.301-.207-.646-.412-.865-1.12-1.201-1.175-2.46-.381-3.859.364-.642.589-1.363.824-1.921l-.67-1.466 1.495-3.072c.672-.214 1.276-.436 1.895-.599 1.654-.433 2.571-1.629 2.964-3.152.549-2.125.433-4.218-.893-6.084-.327.102-.611.101-.707.234-1.51 2.108-3.646 2.565-6.037 2.282a23.923 23.923 0 01-3.165-.587c-3.714-.963-7.035-2.73-10.052-5.078-1.877-1.461-3.791-2.883-5.576-4.45-1.162-1.02-2.581-1.347-3.905-1.302-2.133.073-4.309.424-6.188 1.624-.348.222-.548.676-1.038 1.31 1.919 0 3.444-.117 4.943.028 2.224.214 3.779 1.235 4.334 3.657.577 2.515 1.506 4.948 2.214 7.437.194.681.144 1.431.207 2.152-2.296 1.04-4.104-.497-6.653-.709zm92.746 41.75c-1.33-1.556-2.974-2.301-5.048-2.313-1.74-.01-3.854 1.05-4.495 3.505-.238.912-.219 1.924-.14 2.876.088 1.066.285 2.144.598 3.166.663 2.168 1.472 4.291 2.948 6.064 1.638 1.968 3.654 3.222 6.681 3.367-.666-1.12-1.196-1.894-1.609-2.726-2.199-4.429-2.95-8.8.618-12.967.198-.231.268-.573.447-.972zm-96.936-38.431c.99.752 1.91 1.488 2.868 2.172 3.971 2.835 7.796 5.837 11.273 9.279 3.682 3.645 6.571 7.741 7.915 12.822.109.412.534.74 1.043 1.413.061-3.139-.005-5.806-.413-8.511-.416-2.759-1.553-4.887-3.711-6.565-1.538-1.196-2.999-2.494-4.57-3.643-3.591-2.627-7.421-4.857-11.523-6.596-.864-.368-1.716-.993-2.882-.371zm43.929 11.193l-.323-.536c-2.019.651-4.081 1.196-6.046 1.984-2.029.813-2.773 2.211-2.481 4.376.127.942.484 1.868.833 2.764 1.055 2.703 2.228 5.361 2.869 8.209.098.436.284.852.635 1.879 0-2.708.005-4.753-.001-6.797-.005-1.51-.025-3.02-.036-4.53-.017-2.311.863-4.174 2.703-5.605.664-.519 1.233-1.16 1.847-1.744zm-66.682 110.465l-.14.184.261.011-.121-.195zm72.515-51.39c-.057-.036-.148-.125-.179-.107-.083.047-.141.14-.208.215l.387.128v-.236zm-7.312-9.154v.421c.052-.066.144-.132.146-.2.002-.067-.086-.137-.146-.221zM323.5 285.142c-.558.235-1.287.048-1.936.085-1.174.068-2.395-.209-3.488.491-.167.107-.421.143-.625.12-2.72-.305-5.354.469-8.006.786-2.531.302-5.131.279-7.607 1.042-.304.094-.632.124-.952.148-2.881.211-5.719.672-8.556 1.226-2.199.43-4.51.32-6.691.808-2.198.491-4.439.552-6.643 1.011-1.966.41-4.023.53-6.024.888-2.097.376-4.227.549-6.294 1.117-1.439.395-2.94.335-4.425.693-3.102.748-6.337.922-9.492 1.472-3.989.696-7.931 1.689-11.935 2.259-3.703.527-7.295 1.785-11.088 1.699-.627 1.117-.374 2.337-.376 3.514-.018 10.854-.01 21.708-.011 32.562 0 10.746-.057 21.492.035 32.236.026 3.009-.883 5.493-2.861 7.691-1.16 1.288-2.246 2.645-3.317 4.008-.567.722-1.029 1.525-1.799 2.682 1.521-.262 2.565-.561 3.619-.602 4.76-.185 9.472-.815 14.201-1.323 3.655-.393 7.333-.572 11.001-.846.325-.024.65-.044.973-.077 3.76-.379 7.519-.772 11.281-1.137 2.895-.281 5.793-.526 8.967-.813-.512-.651-.868-1.164-1.284-1.621-1.386-1.523-2.751-3.069-4.205-4.525-1.809-1.813-2.389-3.942-2.375-6.482.075-14.436.033-28.872.042-43.308 0-.739.098-1.479.154-2.275 3.717-1.758 7.333-3.464 10.945-5.178 6.161-2.925 12.317-5.86 18.482-8.776.54-.255 1.058-.815 1.951-.163.012.591.039 1.331.039 2.071.003 8.9.002 17.801.001 26.701 0 9.334-.062 18.67.035 28.003.031 3-.829 5.504-2.827 7.703-1.311 1.443-2.542 2.962-3.769 4.477-.465.574-.821 1.235-1.401 2.123.915 0 1.54.062 2.149-.01a202.311 202.311 0 0115.514-1.251c.434-.018.874.016 1.301-.048 4.711-.709 9.477-.788 14.211-1.221.863-.079 1.752.042 2.6-.101 4.276-.725 8.635-.483 12.912-1.153.268-.042.513-.227 1.005-.454-.494-.626-.855-1.128-1.262-1.591-1.215-1.385-2.362-2.845-3.693-4.11-2.053-1.951-2.834-4.286-2.624-7.044.049-.647.007-1.302.007-1.953v-49.169c0-6.947.008-13.893-.016-20.84-.002-.715.318-1.535-.414-2.124-1.821.061-3.657-.166-5.429.579zm224.719-1.125c-.885-.283-1.932-.018-2.892-.122-1.368-.148-2.718-.474-4.087-.598-1.378-.125-2.764.035-4.102-.582-.539-.248-1.275-.057-1.92-.091-1.485-.077-2.939-.01-4.437-.504-1.27-.419-2.775-.201-4.171-.142-1.42.06-2.763-.139-4.057-.709-.059 1.186-.17 2.371-.171 3.557-.012 15.618-.008 31.236-.008 46.854 0 .651-.003 1.302 0 1.952.005 1.411.09 2.809-1.076 3.939-1.282 1.244-2.68 2.217-4.502 2.367-2.587.213-5.176.454-7.768.536-3.576.114-7.157.106-10.736.121-1.292.005-2.56-.022-3.83-.501-2.928-1.105-4.026-2.447-4.036-5.483-.026-7.484-.024-14.967-.024-22.451 0-9.761.015-19.523.006-29.284-.001-1.186-.114-2.373-.174-3.559-2.249-.022-4.513.288-6.717-.537-.572-.214-1.287-.05-1.936-.052-4.004-.013-8.009.006-12.012-.047-2.029-.027-4.029-.025-6.08-.469-2.177-.472-4.522-.171-6.794-.207-.049.428-.14.857-.14 1.286-.002 24.081.015 48.163-.007 72.244-.003 3.114 1.002 5.742 3.327 7.791 1.128.994 2.334 1.955 3.645 2.677 3.284 1.811 6.915 2.469 10.609 2.549 2.477.053 4.961-.325 7.445-.406 3.143-.102 6.291-.07 9.435-.145 4.545-.109 9.088-.272 13.632-.473 10.824-.48 21.665-.565 32.499-.811.434-.01.868-.025 1.3-.056 4.275-.312 8.333-1.381 11.855-3.89 1.482-1.056 2.831-2.373 4.002-3.772 1.588-1.898 1.972-4.214 1.966-6.694-.049-20.176-.026-40.352-.034-60.529 0-.862-.101-1.724-.156-2.587-2.56-.739-5.285-.35-7.854-1.172zM111.677 329.51c-6.681 2.16-13.362 4.318-20.033 6.508-1.517.498-2.982 1.151-4.494 1.665-.595.202-1.254.217-1.883.318.176.502.299 1.031.537 1.503 8.755 17.396 17.52 34.787 26.294 52.174.283.561.688 1.061 1.026 1.574 3.022-.391 5.901-.813 8.791-1.125a819.372 819.372 0 0114.83-1.469c1.237-.111 2.014-.664 2.493-1.749.829-1.879 1.658-3.759 2.49-5.638 4.946-11.172 9.896-22.342 14.84-33.515 3.018-6.821 6.015-13.652 9.047-20.467 1.087-2.442 2.25-4.85 3.661-7.88v55.984c-1.307 1.634-2.639 3.203-3.86 4.855-1.239 1.677-2.936 3.046-3.809 5.309 1.659-.089 3.066-.097 4.457-.252 2.892-.321 5.771-.759 8.664-1.075 2.9-.318 5.81-.539 8.715-.817 2.257-.216 4.515-.437 6.768-.69 3.107-.348 6.207-.772 9.318-1.08 3.334-.33 6.68-.543 10.016-.86.473-.045.918-.393 1.572-.69l-7.989-8.197v-3.815c0-20.395.004-40.789-.009-61.184-.001-1.184-.13-2.368-.2-3.552-2.911.046-5.678.937-8.48 1.547-5.189 1.129-10.333 2.466-15.49 3.742-5.572 1.379-11.15 2.738-16.703 4.195-7.097 1.862-14.187 3.76-21.24 5.78-1.188.34-2.298.441-3.477.395-1.544 3.329-3.118 6.645-4.625 9.991-2.128 4.727-4.197 9.482-6.323 14.21-.195.434-.208 1.119-1.193 1.153-.298-.543-.666-1.163-.987-1.806-2.416-4.838-4.813-9.685-7.244-14.515-.327-.65-.81-1.222-1.22-1.83-1.42.431-2.847.846-4.26 1.303zm263.216-48.958c-1.164.391-2.559.068-3.848.124-1.695.073-3.368-.068-5.076.5-1.265.421-2.77.096-4.166.155-1.376.058-2.789-.24-4.103.509-.335.191-.84.102-1.268.112-2.449.059-4.915-.179-7.312.621-.476.159-1.065-.02-1.601-.043-.103 1.174-.295 2.348-.296 3.523-.017 23.443-.013 46.886-.013 70.328 0 .76-.062 1.527.02 2.278.199 1.846.639 3.636 1.85 5.109 1.317 1.6 2.811 3.007 4.687 3.963 2.741 1.397 5.616 2.267 8.714 2.225 4.222-.058 8.432-.08 12.653-.554 3.859-.434 7.776-.283 11.665-.69 3.544-.372 7.124-.261 10.693-.622 3.974-.403 7.992-.323 11.993-.664 5.715-.486 11.468-.506 17.201-.802 2.044-.106 4.109-.282 6.107-.703 3.309-.697 6.431-1.965 9.107-4.085 3.101-2.456 5.135-5.439 5.057-9.678-.082-4.43-.045-8.866-.065-13.299-.002-.481-.177-.961-.314-1.659-2.592 1.149-5.002 2.101-7.306 3.262-4.652 2.345-9.63 3.121-14.749 3.294-3.037.103-6.107-.103-9.104.283-2.921.376-5.837.303-8.749.511-2.912.208-5.829.344-8.742.545-2.589.178-5.197-.024-7.768.56-1.628.37-3.254-.1-4.782-.62-3.017-1.026-4.653-3.429-4.328-6.117.065-.535.01-1.084.01-1.627 0-17.908.002-35.815-.005-53.723 0-1.19-.079-2.38-.121-3.57-2.013.147-4.027-.123-6.041.554zm234.319 15.035c4.294 9.45 8.588 18.901 12.911 28.337 4.008 8.749 8.083 17.469 12.062 26.231 1.549 3.412 1.428 6.72-1.15 9.704-.317.367-.47.877-.706 1.337.276.114.373.172.477.193.21.042.423.09.636.091 7.918.035 15.835.065 23.753.096.325.001.651.006.976.009.108.001.217.002.325.005.108.004.219 0 .325.018.426.074.851.155 1.277.232.106.019.214.036.321.045.108.01.217.012.325.014a70.64 70.64 0 001.302.015c5.857.025 11.714.052 17.571.074.541.002 1.082-.022 1.622-.046a.53.53 0 00.304-.102c.067-.056.079-.176.205-.494-.308-.39-.675-.889-1.078-1.359-1.339-1.563-2.65-3.153-4.047-4.662-1.948-2.104-2.712-4.52-2.688-7.401.09-10.954.042-21.909.027-32.864-.001-1.075-.133-2.151-.204-3.226-4.464-1.471-8.905-3.017-13.397-4.393-5.309-1.626-10.654-3.133-15.998-4.639a452.652 452.652 0 00-12.052-3.245c-5.892-1.487-11.788-2.966-17.719-4.281-1.86-.412-3.713-1.094-5.682-.93.096.417.13.861.302 1.241zm-34.872-4.233c-.01 18.963-.022 37.927.008 56.89.004 2.727-.772 5.077-2.608 7.103a193.378 193.378 0 00-4.476 5.144c-.312.369-.47.869-.837 1.573 1.388 0 2.463.003 3.538-.001 5.96-.022 11.92 0 17.879-.079 8.985-.12 17.968-.309 26.952-.477.318-.006.634-.1 1.026-.166-.146-.326-.216-.653-.406-.877-1.47-1.734-2.914-3.494-4.462-5.157-1.938-2.083-2.822-4.408-2.805-7.329.095-16.796.045-33.592.049-50.388 0-.864.001-1.734.097-2.59.026-.235.401-.431.616-.645l-.276-1.398c-1.251.636-2.242.628-3.472.273-2.633-.759-5.418-.974-8.119-1.521-2.496-.505-4.974-1.071-7.514-1.335-.834-.087-1.638-.43-2.469-.573-2.19-.376-4.391-.662-6.567-1.157-1.961-.446-3.993-.578-5.994-.849-.056 1.186-.159 2.372-.16 3.559zM48.194 354.841c-.011 11.395-.007 22.789-.007 34.184v3.093c-2.376 3.672-5.559 6.513-7.947 10.46 1.575-.103 2.763-.108 3.929-.27 3.952-.548 7.893-1.181 11.846-1.727 4.918-.679 9.84-1.328 14.766-1.946 5.892-.739 11.791-1.42 17.683-2.164.469-.059.901-.409 1.531-.709l-7.939-7.932v-3.389c0-13.674.005-27.347-.008-41.021-.001-1.186-.124-2.371-.191-3.556-.648.051-1.39-.086-1.928.183-2.992 1.496-6.264 2.186-9.357 3.375-6.293 2.419-12.526 4.995-18.833 7.376-1.051.397-2.127 1.141-3.395.804-.053 1.08-.149 2.159-.15 3.239zm260.007 77.426c-1.639.399-3.364.27-5.06.687-2.152.53-4.436.518-6.658.774-1.478.17-2.874.894-4.414.66-2.072 1.017-4.474.265-6.569 1.229-.355.163-.852.017-1.283.013l-4.457 11.168c-.374-.483-.697-.784-.879-1.154-.948-1.931-1.831-3.895-2.797-5.817-.523-1.041-1.164-2.023-1.752-3.031-.31.262-.594.71-.934.757-2.736.38-5.367 1.269-8.155 1.471-1.877.136-3.712.857-5.566 1.317.385 1.003.701 2.038 1.166 3.003 3.426 7.115 6.851 14.232 10.346 21.313 1.139 2.307 2.072 4.736 3.465 6.732 3.345 0 6.487.035 9.628-.01 2.781-.04 2.974-.218 3.987-2.873.077-.202.127-.413.201-.616 3.543-9.746 7.084-19.494 10.643-29.234.193-.528.538-1.001 1.134-2.083.648 10.155 1.336 19.635 1.386 28.845l-3.56 5.093 24.149-1.16c-.778-2.099-2.715-3.192-3.686-4.817-.219-1.844-.522-3.555-.609-5.276-.309-6.164-.622-12.329-.776-18.498-.081-3.252-.424-6.468-.756-9.693-2.704.569-5.489.542-8.194 1.2zm59.161-6.333c-1.585.063-3.155.465-4.741.58-1.503.109-3.091-.243-4.511.119-2.338.596-4.725.236-7.004.662-2.348.439-4.726.218-7.001.654-2.349.45-4.751.143-6.996.669-2.573.603-5.117.401-7.67.58.094 4.761.129 9.512.559 14.273.536 5.925.559 11.896.854 17.845.079 1.593-.23 3-1.266 4.238-.486.58-.94 1.194-1.346 1.832-.248.39-.376.857-.642 1.491 1.153 0 2.014.035 2.871-.006 4.324-.207 8.648-.444 12.972-.648 1.408-.066 2.82-.063 4.229-.096 1.177-.027 2.346-.088 3.493-.975-.632-.753-1.19-1.542-1.871-2.202-1.503-1.456-2.074-3.242-2.099-5.27a126.973 126.973 0 00-.09-3.904c-.236-5.517-.493-11.033-.721-16.55-.031-.739.062-1.483.094-2.131 3.467-2.148 12.528-6.478 14.746-7.048.048.436.117.858.139 1.283.192 3.673.224 7.345.555 11.023.514 5.709.533 11.462.828 17.192.088 1.712-.301 3.189-1.355 4.543-.712.915-1.305 1.922-2.159 3.199.987.069 1.587.175 2.179.14 2.374-.139 4.743-.349 7.117-.482 4.539-.255 9.079-.47 13.618-.723.261-.014.512-.217.865-.375-.397-1.204-1.346-1.809-2.006-2.626-1.036-1.282-1.857-2.645-1.906-4.375-.112-4.002-.266-7.997-.57-11.998-.516-6.799-.604-13.631-.895-20.448-.017-.402-.235-.795-.359-1.192-3.258.874-6.597.595-9.911.726zm122.201-.711c-.433 0-.901.1-1.293-.028-3.377-1.102-6.855-.401-10.279-.619-1.49-.095-3.013.243-4.452-.53-.427-.229-1.063-.085-1.604-.086-7.358-.018-14.716-.033-22.074-.041-.43 0-.86.075-1.29.115.21.364.337.831.643 1.074 1.747 1.389 3.73 2.165 5.998 2.06 4.757-.22 9.514-.433 14.269-.681 1.724-.09 3.444-.255 5.163-.411 1.692-.154 3.204.219 4.435 1.314.697 1.964.809 3.887.839 5.845.044 2.922.08 5.857.386 8.758.183 1.736.233 3.438.188 4.977-.724 1.481-1.883 2.172-3.202 2.243-3.136.171-6.283.172-9.426.185-1.338.006-2.227-.778-2.702-1.983-.152-.385-.102-.854-.124-1.285-.223-4.321-.435-8.642-.67-12.962-.027-.493-.174-.98-.269-1.493-.512.043-.872-.018-1.141.11-3.614 1.716-7.243 3.402-10.801 5.228-1.026.527-1.916 1.398-2.725 2.248-.934.981-1.187 2.315-1.151 3.617.06 2.156.302 4.307.408 6.462.096 1.949.025 3.908.181 5.85.312 3.883 1.824 5.855 5.319 6.848 1.121.318 2.357.368 3.533.326 2.915-.105 5.826-.226 8.742-.475 4.627-.395 9.295-.215 13.936-.716 2.47-.267 4.986-.077 7.474-.222 1.501-.087 3.047-.233 4.467-.684 2.834-.9 5.583-3.446 5.15-6.99-.209-1.714-.404-3.435-.487-5.158-.278-5.728-.508-11.459-.742-17.189-.058-1.408-.029-2.82-.112-4.226-.03-.503-.272-.993-.417-1.489-2.059.006-4.114.008-6.17.008zm-84.069-1.258c-1.92.044-3.845-.215-5.75.506-.85.322-1.924.054-2.897.054.726 2.695 1.426 5.396 2.182 8.083a8360.951 8360.951 0 007.484 26.43c.555 1.948 1.2 3.87 1.777 5.717 2.198.171 14.358-.442 16.452-.815.127-.331.349-.711.417-1.117.531-3.19.985-6.393 1.553-9.576 1.438-8.056 2.941-16.1 4.376-24.156.339-1.905.513-3.838.763-5.759-1.587.011-3.175-.192-4.718.506-.537.243-1.266.073-1.907.074-3.101.002-6.201-.003-9.302-.005-.801 1.265-.353 2.989-1.514 4.252-.424-1.517-.543-3.013-1.454-4.228-2.487.006-4.976-.023-7.462.034zm-163.71 21.352c.586 3.325.392 6.684.534 10.028.041.973.063 1.948.125 2.919.213 3.336.44 6.672.644 9.733-1.111 1.986-2.574 3.345-3.395 5.356.702.04 1.21.117 1.712.088 2.692-.155 5.381-.151 8.078-.482 2.992-.367 6.05-.21 9.08-.257 1.669-.026 3.285-.276 5.108-.823l-4.022-4.385c-.155-3.186-.319-6.417-.468-9.649-.249-5.397-.481-10.794-.749-16.19-.013-.269-.293-.525-.449-.788-3.154-.105-6.091 1.042-9.133 1.579-2.304.407-4.535 1.356-6.95.951-.047.642-.223 1.306-.115 1.92zm159.422-425.12c-.772-.448-1.493-.067-2.159.224-4.271 1.865-8.767 3.048-13.182 4.485-2.452.799-4.794 1.952-7.148 3.029-1.18.54-2.263 1.28-2.664 2.708.426 1.557 1.725 2.15 3.046 2.613 3.756 1.314 7.538 2.558 11.349 3.843 4.127-4.584 7.574-9.383 10.05-14.842.301-.665.434-1.406.645-2.111.001-.002.063.051.063.051zm-20.054 183.439a141.247 141.247 0 01-7.774-15.675c-1.65-3.915-2.782-7.952-2.128-12.283.014-.093-.069-.2-.107-.301-.108.011-.227-.003-.321.04-.189.087-.393.174-.54.314-1.587 1.508-2.152 3.433-2.274 5.55-.183 3.188.574 6.23 1.504 9.223 2.088 6.725 5.141 13.055 8.117 19.412.263.563.651 1.067 1.062 1.729l6.57-.787c-1.443-2.538-2.764-4.887-4.109-7.222zm27.341 64.861c1.141.997 2.319 1.953 3.44 2.972 3.307 3.004 6.124 6.429 8.648 10.106.275.401.452 1.008 1.165.72-.386-4.728-3.171-12.922-5.438-15.83l-9.163.723c.6.586.957.967 1.348 1.309zm-103.091-67.25c.089-.512-.259-.596-.636-.653l.051-.051.637.658-.052.046zm-.586-.704l-.241-.178.19.229.051-.051zm-2.052-8.388l.189.441.32-.231-.423-.289-.086.079zm20.283-46.33c.007.263-.109.66.404.369l-.451-.316.047-.053zm-.047.053l-.615-.694-.073.083c-.011.523.262.672.735.557l-.047.054zm-1.568-1.044l.881.435.073-.083-.536-.764a27 27 0 00-.418.412zm-9.466-71.247c-.426-.083-.61.012-.329.448l.297-.483.032.035zm43.736 92.136c.056.067.13.118.198.174l.128-.302-.215-.014c-.04.05-.12.133-.111.142zm81.431-10.886l-1.415-1.183-.027 1.039 1.146.441c.095-.103.194-.202.296-.297zm-.297.296c.193.215.363.592.671.148.029-.042-.242-.292-.374-.445a6.932 6.932 0 00-.297.297zm-57.201-61.284c-.166.061-.295.224-.439.346l.915.08c-.262-.243-.411-.45-.476-.426z" fill="#979899"/>
</svg>
