<svg xmlns="http://www.w3.org/2000/svg" viewBox="0 0 589.96 608.98">
<path d="M169.91 47.84l-3.9 3.74 5.08 2c.82.33 1.6.65 2.35 1.01.37.16.72.39 1.11.69 1.21 5.81 2.4 11.6 3.58 17.41l.21 1c1.43 7.05 2.85 14.1 4.26 21.17l.38 1.88 1.81.72c4.74 1.86 9.54 3.83 14.26 5.86l.97.42 1.05-.17a546.24 546.24 0 0122.42-3.08l1.05-.13.82-.67c3.9-3.18 7.92-6.36 11.97-9.45l1.55-1.19-.2-1.92c-.67-6.42-1.34-12.8-2.01-19.2l-.2-1.94-1.8-.86c-4.83-2.3-9.79-4.59-14.76-6.78l-5.86-2.58.85 6.23c.87 6.6 1.74 13.21 2.59 19.81-5.37.65-10.78 1.4-16.14 2.22-.81-4.65-1.64-9.28-2.45-13.93l-.18-1.01c-1.63-9.2-3.29-18.4-4.96-27.59l-.18-1.01c-.86-4.69-1.71-9.39-2.59-14.07 6.25-.95 12.55-1.82 18.75-2.58.92 6.7 1.83 13.4 2.73 20.1l.81 6.03 4.94-3.69c4.39-3.27 8.86-6.51 13.29-9.6l1.7-1.19-.22-2.03c-.71-6.47-1.41-12.95-2.14-19.41l-.22-2.03-1.91-.81c-5.32-2.26-10.78-4.48-16.22-6.62l-.85-.33-.91.11c-8.91 1.04-17.91 2.29-26.74 3.7l-.92.14-.73.57a522.72 522.72 0 00-13.39 10.7l-1.64 1.34.44 2.04c1.52 7.13 3.03 14.26 4.51 21.39l.16.77c-.23.39-.46.71-.77 1.03-.54.59-1.12 1.18-1.75 1.79zm41.01-38.2c4.9 1.92 9.83 3.92 14.68 5.98.64 5.79 1.28 11.59 1.91 17.37-3.38 2.38-6.77 4.82-10.1 7.27-.93-6.85-1.85-13.71-2.81-20.56l-.24-1.72-1.76.2c-8.69 1.01-17.48 2.23-26.1 3.6l-1.8.29.33 1.76c1.09 5.86 2.17 11.71 3.23 17.57l.18 1.01c1.68 9.19 3.33 18.39 4.96 27.58l.18 1.01c1.03 5.78 2.04 11.55 3.05 17.33l.31 1.72 1.76-.28c7.58-1.2 15.33-2.26 23.02-3.16l1.79-.21-.23-1.74c-.87-6.73-1.74-13.47-2.64-20.19 3.63 1.62 7.24 3.29 10.78 4.97.61 5.74 1.2 11.48 1.8 17.23-3.67 2.82-7.33 5.72-10.92 8.63-7.18.84-14.44 1.84-21.59 2.96-4.29-1.84-8.67-3.63-13.03-5.35-1.35-6.74-2.71-13.5-4.08-20.24l-.21-1.01c-1.2-5.92-2.42-11.84-3.65-17.77-.19-.98-.77-1.86-1.72-2.62-.73-.59-1.51-1.07-2.31-1.43-.08-.04-.15-.07-.23-.11.04-.05.09-.09.13-.14.6-.64 1.13-1.37 1.58-2.17.57-1.05.75-2.13.52-3.2l-.21-1.01c-1.43-6.8-2.85-13.59-4.31-20.38 3.94-3.23 8-6.46 12.09-9.64 8.51-1.36 17.11-2.55 25.64-3.55zm125.86 75.2l1.79.16 1.87-20.27c.86-9.29 1.73-18.57 2.59-27.86l1.95-20.54-1.8-.16c-8.75-.74-17.63-1.32-26.36-1.72l-1.79-.08-3.26 68.87 1.8.08c7.69.35 15.51.87 23.21 1.52zm-16.62-64.96c6.27.33 12.63.73 18.94 1.24l-1.44 15.27c-.87 9.29-1.74 18.57-2.59 27.87l-1.39 15.05c-5.4-.42-10.86-.78-16.29-1.06l2.77-58.37zM87.32 43.34c.01.04.04.08.05.12l3.08-.99c1.2-.38 2.29-.6 3.44-.65.82-.07 1.66-.01 2.51.16.29.06.55.17.79.33 1.89 5.39 3.78 10.78 5.63 16.18l.32.97 7.26 3.94-4.41 3.68 8.82.56c1.4.08 2.77.22 4.11.38a25.788 25.788 0 014.74.92l1.71.72c3.53 11.58 7 23.14 10.34 34.42-.07.25-.18.38-.25.45-.55.56-1.12 1.01-1.89 1.46-.65.42-1.41.76-2.3 1.02l-3.46 1.01 3.51 11.26 3.42-.98c2.72-.79 5.44-1.55 8.18-2.29 4.14-1.13 8.32-2.21 12.41-3.21 2.75-.68 5.52-1.34 8.28-1.97l3.52-.81-2.85-11.43-3.47.78c-.91.21-1.75.29-2.69.22-.8-.03-1.54-.14-2.25-.35-.11-.03-.28-.1-.49-.31-3.07-11.4-6.26-23.1-9.51-34.77l.4-.58c.34-.5.9-1.1 1.61-1.74.84-.75 1.67-1.41 2.61-2.06.96-.72 2.03-1.47 3.18-2.23l7.38-4.85-6.33-1.09c1.21-1.66 2.46-3.32 3.7-4.98l.99-1.31-.4-1.58c-1.37-5.53-2.75-11.05-4.13-16.56.11-.19.24-.37.41-.53.61-.56 1.3-1.01 2.17-1.39.88-.44 1.94-.8 3.16-1.04l3.6-.72-2.69-11.5-3.44.69c-3.33.66-6.64 1.35-9.94 2.07-4.99 1.09-10.01 2.23-14.92 3.41l-3.57.86.98 3.47c1.85 6.58 3.69 13.17 5.51 19.75-1.84 2.58-3.68 5.18-5.48 7.8-3.01-1.39-6.06-2.76-9.12-4.1-2.08-6.54-4.19-13.09-6.32-19.63l-1.06-3.26-3.36.94c-4.9 1.37-9.83 2.81-14.65 4.29-3.22.99-6.44 2-9.65 3.03l-3.52 1.13 3.34 8.96.27.04.72 1.89zm23.28-13.81c2.11 6.49 4.2 12.99 6.27 19.48l.24.76.75.32c4.45 1.95 8.93 3.95 13.28 6l1.4.66.86-1.27c2.62-3.86 5.35-7.75 8.09-11.56l.49-.67-.22-.8c-1.8-6.55-3.63-13.09-5.47-19.63 4.27-1.01 8.64-2.01 13.01-2.96 2.71-.59 5.42-1.15 8.15-1.7l.3 1.29c-.99.3-1.91.65-2.7 1.05-1.24.56-2.4 1.31-3.43 2.25a7.181 7.181 0 00-2.24 3.95l-.07.38.09.37c1.39 5.56 2.78 11.12 4.16 16.69-2.08 2.78-4.14 5.57-6.15 8.37l-1.18 1.63 1.71.87c-.25.17-.48.35-.7.52-1.01.71-2.02 1.51-3.01 2.38-1.06.95-1.86 1.84-2.45 2.69l-1.75 2.58.21.76c3.44 12.39 6.85 24.84 10.12 36.99l.08.31.19.26c.99 1.38 2.25 2.29 3.71 2.71 1.23.36 2.45.54 3.57.57.77.06 1.57.04 2.38-.06l.33 1.31c-2.21.51-4.41 1.05-6.61 1.58-4.11 1.02-8.33 2.11-12.54 3.25-2.19.6-4.38 1.2-6.55 1.83l-.4-1.29c.74-.3 1.4-.66 1.98-1.04 1.05-.59 2.03-1.35 2.89-2.25 1.05-1.09 1.66-2.48 1.8-4.16l.02-.32-.1-.31a3645.74 3645.74 0 00-10.49-34.92l10.22 1.36-14.03-5.37c-1.04-.4-2.22-.74-3.52-1.04-1.31-.29-2.61-.5-3.81-.61-.34-.05-.69-.08-1.05-.11l1-1.56-1.87-.82a525.66 525.66 0 00-9.9-4.22c-1.88-5.45-3.79-10.89-5.69-16.33l-.13-.36-.26-.27a7.952 7.952 0 00-4.05-2.26c-1.39-.29-2.78-.37-4.06-.26-.97.04-2 .18-3.04.43l-.47-1.25c2.59-.83 5.2-1.64 7.8-2.44 4.24-1.28 8.56-2.54 12.84-3.76zM522.58 43a640.966 640.966 0 00-51.48-17.26c-3.25-.95-6.5-1.85-9.77-2.75l-3.39-.92-3.5 11.27 3.54.97c1.22.34 2.25.76 3.22 1.33.71.37 1.35.88 1.91 1.45.16.17.29.35.38.56-1.2 3.65-2.38 7.31-3.57 10.96-1.2-5.94-3.29-11.21-6.51-15.51l.37.1 3.35-11.31-3.56-.93c-3.24-.84-6.49-1.66-9.76-2.44-4.98-1.2-10.04-2.37-15.04-3.46l-3.45-.76-.83 3.34c-.31 1.23-.6 2.45-.91 3.68-6.55.33-12.66 2.11-18.1 5.21-1.41-5-2.85-9.99-4.36-14.91l-.64-2.09-2.19-.37A647.08 647.08 0 00373 5.38l-3.52-.45-1.7 11.65 3.61.47c1.26.16 2.34.44 3.39.88.76.27 1.48.69 2.15 1.19.2.16.35.33.47.52-1.07 6.57-2.15 13.14-3.21 19.73l-.12.75c-.01.03-.04.05-.07.08-.31.29-.65.51-1.08.73-.66.34-1.42.7-2.27 1.03L366 43.78l.98.71-1.1.46 3.91 2.99c.69.53 1.3 1.07 1.86 1.59.26.26.49.55.66.87.05.08.07.14.08.19-.93 5.81-1.86 11.62-2.77 17.41l-.16 1.02c-1.04 6.56-2.07 13.12-3.09 19.68-.16.18-.3.3-.46.37-.68.29-1.37.47-2.24.57-.77.14-1.68.13-2.68 0l-3.54-.45-1.6 11.65 3.57.47c2.83.36 5.65.75 8.46 1.16 3.57.51 7.14 1.07 10.67 1.65-1.87 25.28-3.88 45.69-3.88 45.69s-70.13-19.04-151.28-19.04-120.72 22.54-120.72 65.62 37.57 75.14 47.59 82.15c0 11.02 0 33.06 37.57 59.61.5 17.53.5 23.54 20.04 40.58-10.52 8.01-11.02 11.02-18.53 8.27-7.51-2.76-35.82-13.27-39.07-6.76-3.26 6.51-1.5 11.77 2.5 13.53-1.75 2.76-9.02 2.76-9.02 9.77s8.01 9.02 8.01 9.02-2 12.02 6.26 12.02h23.79c6.01 0 12.52 5.76 28.05 5.76 8.01 0 11.52-2.25 13.27 1.25 1.75 3.51 3.26 6.76 10.27 6.76s11.52-3.51 11.52-11.77c0-3.76-4.51-4.26 0-6.76s15.53-4.51 15.53-4.51 12.02 15.03 33.31 14.03c6.01 9.02 12.02 11.02 15.28 13.02s-.5 3.26 8.01 11.77c8.52 8.52 12.77 14.53 21.04 15.53 3.26 7.76 1.75 22.04-8.27 37.32 13.27 8.77 35.32-17.78 40.07-22.79 4.76-5.01 23.29-16.78 22.79-25.55s-1-8.27 2-11.27c3.01-3.01 7.26-2.25 7.26-17.78 9.27-1 79.65-14.03 79.65-56.36 0-25.3-28.55-23.54-24.55-21.54 4.01 2 16.53 6.26 12.27 25.55-6.26-9.02-20.29-27.55-46.59-26.3-4.01-11.02-14.78-15.53-14.78-15.53s93.92-21.29 93.92-75.39c0-37.32-36.57-46.34-36.57-46.34s18.03 18.78 18.03 35.32c0 16.53-15.28 34.81-30.56 46.34 10.02-16.03 18.78-22.4 18.78-48.34 0-25.94-20.29-43.33-42.08-54.6 3.51-14.03 3.76-17.28 10.52-39.57 1.81-5.97 6.15-17.71 10.44-31.81 11.61 3.55 23.15 7.47 34.39 11.77l3.33 1.28 1.32-3.24c2.4-5.93 4.83-11.84 7.27-17.74l1.38-3.32-3.38-1.29c-1.63-.63-3.26-1.24-4.89-1.84l-2.56-.95-1.61 2.15c-.51.68-1.07 1.14-1.84 1.49l-.27.15c-.39.23-1.12.52-2.48.63-1.1.1-2.51-.16-4.21-.75-4.44-1.55-8.94-3.06-13.41-4.49 2.86-8.42 5.78-16.93 8.71-25.38 6.65 2.14 13.28 4.39 19.75 6.73l6.63 2.39-1.93-6.63c-1.38-4.79-2.88-9.71-4.45-14.63l-.54-1.69-1.71-.59c-3.79-1.3-7.61-2.57-11.39-3.78 1.38-3.94 2.79-7.9 4.19-11.84 5.18 1.67 10.35 3.4 15.4 5.17 1.94.67 3.39 1.47 4.3 2.35 1.15 1.11 1.62 1.89 1.82 2.37.35.79.48 1.52.42 2.3l-.23 2.63 2.52.94c1.77.66 3.54 1.32 5.31 2l3.27 1.25 1.36-3.15c2.53-5.89 5.08-11.77 7.65-17.64l1.45-3.32-3.41-1.35zM372.4 166.35s-42.08-3.95-113.21 6.01C296 150.07 373.4 152.53 373.4 152.53l-1 13.82zm137.7-105.6a9.688 9.688 0 00-.83-3.42c-.54-1.32-1.52-2.66-3-4.08-1.48-1.43-3.6-2.63-6.27-3.57-6.19-2.16-12.54-4.28-18.92-6.28l-1.68-.52-.57 1.62c-2.19 6.16-4.38 12.31-6.54 18.49l-.59 1.69 1.74.55c4.62 1.45 9.29 2.98 13.89 4.56 1.1 3.45 2.15 6.92 3.17 10.34-6.61-2.34-13.32-4.58-20.01-6.68l-1.69-.53-.56 1.64c-3.71 10.67-7.41 21.45-10.99 32.05l-.56 1.67 1.73.54c5.55 1.74 11.17 3.6 16.7 5.53 2.46.86 4.59 1.21 6.5 1.03 1.87-.16 3.47-.61 4.74-1.33a9.4 9.4 0 002.83-2.02c.66.25 1.31.49 1.96.74-1.99 4.84-3.97 9.68-5.94 14.51-10.88-4.11-22.03-7.88-33.24-11.32 5.07-17.48 9.62-37.77 9.24-55.08.41-.47.72-.99.91-1.58 2.26-6.98 4.53-13.97 6.82-20.94l.12-.37-.06-.39c-.21-1.58-.86-2.95-1.95-4.09-.96-.99-2.05-1.83-3.18-2.43-.81-.48-1.7-.91-2.68-1.26l.4-1.27a637.592 637.592 0 0157.31 18.73c-2.09 4.81-4.19 9.62-6.26 14.44-.84-.33-1.69-.64-2.54-.97zM362.08 94.98h.01c.87.02 1.68-.04 2.41-.16 1.21-.14 2.4-.46 3.56-.94 1.36-.58 2.47-1.6 3.31-3.06l.16-.28.05-.32c1.05-6.8 2.12-13.61 3.19-20.42l.16-1.02c.94-5.96 1.89-11.92 2.85-17.88l.03-.14v-.14c0-.88-.25-1.8-.74-2.7-.44-.82-.99-1.54-1.64-2.17-.05-.05-.11-.1-.16-.16.06-.04.13-.06.19-.1.8-.4 1.53-.91 2.2-1.5.77-.7 1.31-1.53 1.62-2.49l.24-1.39c1.11-6.89 2.23-13.78 3.36-20.66l.06-.38-.11-.37c-.45-1.53-1.32-2.79-2.56-3.77-1.11-.86-2.32-1.52-3.52-1.96-.87-.37-1.84-.67-2.88-.9l.18-1.29c2.75.36 5.51.74 8.26 1.14 4.63.67 9.31 1.41 13.96 2.18 1.56 5.14 3.05 10.34 4.51 15.55-3.14 2.42-6 5.35-8.51 8.75l-.8-2.79-1.02 5.42c-5.66 8.78-9.26 20.29-10.02 34.15-.44 7.95-.95 15.96-1.5 23.65-3.43-.56-6.87-1.09-10.25-1.58-2.26-.32-4.51-.64-6.77-.94l.17-1.33zm80.41-71.4c2.63.64 5.28 1.3 7.89 1.97l-.37 1.27c-1.01-.16-1.98-.25-2.88-.23-.21 0-.42 0-.63.01-4-2.6-8.93-4.35-14.99-5.01-.81-.1-1.61-.17-2.41-.22l.21-.84c4.41.96 8.85 1.99 13.18 3.05zM235.78 13.7c1.27-.1 2.39-.06 3.53.16.83.12 1.63.37 2.4.73.25.12.47.27.64.45.54 6.9 1.07 13.79 1.6 20.71-.28.36-.58.68-.9.95-.55.46-1.21.96-1.98 1.48l-5.09 3.42 5.58 2.62c.81.38 1.54.78 2.2 1.19.32.19.63.45 1 .87.91 12.06 1.8 24.13 2.68 36.18l.16 2.32c-.11.2-.21.34-.34.44-.6.42-1.22.74-2.04 1.01-.74.29-1.61.47-2.62.55l-3.6.29 1.03 11.72 3.57-.29c2.84-.23 5.67-.43 8.53-.62a570.152 570.152 0 0122.92-1.01c2.67-.07 5.33-.11 8.01-.13 2.62-.02 5.26-.03 7.88-.01l3.59.02.1-26.13-3.59-.05c-1.76-.02-3.52-.02-5.28-.01l-2.6.02-.81 2.4c-.3.88-.74 1.61-1.41 2.29-.53.6-1.29 1.15-2.28 1.65-.61.31-1.82.69-4.15.73-2.28.05-4.55.12-6.83.2-.52-10.96-1.05-21.91-1.6-32.87.01-.01.03-.02.04-.06.2-.31.42-.57.72-.8.55-.43 1.22-.9 1.99-1.37l5.24-3.21-5.47-2.85c-.82-.43-1.55-.85-2.19-1.28-.3-.2-.57-.42-.84-.75l-1.05-20.84c.15-.19.33-.34.54-.47.73-.44 1.5-.77 2.44-1.02.95-.28 2.02-.45 3.16-.48l3.65-.09L273.89 0l-3.57.1c-3.35.09-6.69.2-10.04.34-5.04.21-10.21.49-15.37.82-3.39.23-6.79.47-10.18.73l-3.62.29 1.13 11.71 3.54-.29zm32.94-8.27l.05 1.32c-.97.12-1.9.3-2.74.56-1.34.34-2.62.88-3.8 1.61-1.35.84-2.35 2-2.96 3.47l-.15.35.02.38c.38 7.31.75 14.62 1.11 21.91.05 1.06.45 2.04 1.18 2.92.6.72 1.3 1.33 2.04 1.82.06.04.13.09.2.13-.05.04-.1.09-.16.12-.74.57-1.4 1.28-1.92 2.12-.61.96-.9 1.94-.85 2.9.6 12.17 1.2 24.36 1.77 36.53l.09 1.74 1.79-.07c3.44-.14 6.87-.25 10.31-.33 2.74-.06 4.87-.5 6.5-1.33 1.59-.81 2.91-1.77 3.81-2.81.83-.84 1.5-1.83 2.02-2.94h2.21l-.06 15.61c-2.05-.01-4.1.01-6.15.02-2.7.03-5.4.07-8.08.13-3.38.07-6.75.19-10.13.33-4.35.18-8.72.41-13.01.69-2.28.15-4.55.3-6.83.48l-.12-1.33c.85-.16 1.63-.38 2.32-.65 1.08-.38 2.18-.93 3.2-1.65 1.2-.84 2.06-2.09 2.55-3.67l.1-.3-.24-3.39c-.88-12.17-1.78-24.33-2.7-36.49-.08-.99-.52-1.94-1.34-2.84-.66-.73-1.4-1.35-2.16-1.8-.06-.04-.14-.08-.2-.13.05-.04.1-.09.16-.12.68-.56 1.29-1.22 1.85-1.96.71-.97 1.02-2.02.94-3.12-.56-7.3-1.12-14.6-1.69-21.89l-.03-.38-.2-.34c-.8-1.39-1.92-2.44-3.37-3.12-1.26-.59-2.6-1.01-3.9-1.19-.95-.18-1.98-.26-3.05-.28l-.12-1.31c2.75-.22 5.52-.41 8.29-.59 5.07-.33 10.2-.61 15.25-.81 2.75-.14 5.47-.23 8.2-.3zM112.54 115.92l1.22-1.52-.66-1.82c-2.18-6.07-4.38-12.13-6.61-18.19l-.66-1.82-1.93-.43c-5.23-1.16-10.6-2.25-15.94-3.26l-6.38-1.21 2.35 5.91c2.48 6.21 4.93 12.43 7.35 18.65-5.04 1.85-10.07 3.79-15.03 5.77-1.91-4.34-3.84-8.67-5.77-13.01l-.43-.94c-3.79-8.49-7.71-17.15-11.62-25.7l-.46-.92c-1.99-4.36-4-8.7-6.02-13.05a612.9 612.9 0 0117.42-6.71c2.6 6.31 5.18 12.62 7.73 18.94l2.27 5.63 3.87-4.72c3.41-4.14 6.92-8.29 10.44-12.31l1.37-1.57-.72-1.92c-2.3-6.09-4.63-12.16-6.96-18.25l-.24.07-.78-2.1-1.76-.31c-5.72-.99-11.56-1.92-17.37-2.76l-.9-.14-.86.31c-8.36 3.03-16.73 6.26-24.9 9.61l-.88.36-.58.75a532.56 532.56 0 00-10.21 13.4l-1.27 1.68.94 1.89c3.27 6.57 6.52 13.14 9.74 19.72l.35.71c-.11.41-.27.79-.47 1.15-.37.69-.8 1.4-1.25 2.13l-2.83 4.52 5.38.78c.88.12 1.71.28 2.52.46.41.09.81.21 1.27.43 2.6 5.37 5.18 10.73 7.74 16.11l.45.93c3.11 6.53 6.18 13.06 9.23 19.6l.8 1.73 1.94.29c5.1.75 10.2 1.58 15.18 2.48l1.06.19.98-.4c6.88-2.81 13.94-5.52 20.95-8.05l1.01-.36.63-.84c3-3.98 6.12-7.97 9.3-11.89zm-47.39 13.84a2473.2 2473.2 0 00-8.84-18.77l-.45-.94c-2.61-5.48-5.24-10.96-7.9-16.45-.44-.91-1.21-1.64-2.3-2.15-.85-.4-1.72-.71-2.59-.88-.09-.01-.18-.04-.27-.06.03-.05.07-.11.09-.16.43-.76.75-1.59.99-2.47.3-1.14.19-2.23-.28-3.23l-.45-.93c-3.07-6.3-6.18-12.57-9.3-18.83 3-4.05 6.08-8.09 9.21-12.05 7.82-3.21 15.83-6.29 23.82-9.2 5.25.76 10.55 1.6 15.74 2.49 2.11 5.47 4.19 10.95 6.26 16.43-2.67 3.06-5.31 6.18-7.93 9.31-2.61-6.45-5.25-12.91-7.91-19.35l-.65-1.59-1.64.59c-8.14 2.94-16.32 6.1-24.32 9.38l-1.7.7.78 1.65c2.53 5.44 5.05 10.87 7.55 16.32l.43.94c3.9 8.53 7.82 17.16 11.61 25.66l.43.93c2.41 5.39 4.79 10.77 7.15 16.16l.7 1.6 1.64-.68c7.07-2.89 14.31-5.67 21.51-8.27l1.7-.61-.64-1.65c-2.47-6.35-4.96-12.68-7.47-19.01 3.89.76 7.79 1.56 11.63 2.41 2 5.44 3.98 10.9 5.93 16.35a494.09 494.09 0 00-8.49 10.85A520.69 520.69 0 0079.03 132c-4.58-.78-9.23-1.54-13.88-2.24zm230.92-86.4c.57.41 1.02.83 1.34 1.27l.12.4-.9 41.93 1.64 1.07a511.9 511.9 0 0112.71 8.58l.87.6 1.06.05c7.51.33 15.12.83 22.62 1.47l1.06.09.93-.49c4.5-2.32 9.13-4.64 13.76-6.86l1.76-.84.22-1.91c.83-7.14 1.66-14.28 2.51-21.41l.13-1.03c.7-5.85 1.39-11.72 2.09-17.56.01-.01.01-.01.03-.02.33-.34.67-.59 1.05-.81.62-.36 1.36-.71 2.2-1.06l4.58-1.93-.97-.74 1.11-.42-3.97-2.92c-.73-.54-1.38-1.07-1.94-1.59a5.56 5.56 0 01-.82-.95l.1-.79c.87-7.22 1.74-14.43 2.63-21.66l.25-2.07-1.72-1.2c-4.68-3.27-9.49-6.54-14.32-9.71l-.77-.5-.92-.09A663.84 663.84 0 00317.5.5l-.92-.02-.83.39a578.35 578.35 0 00-15.57 7.75l-1.86.97-.51 24.16-.19.67c-.11.13-.21.24-.34.35-.31.29-.65.55-1 .78-.44.28-.92.57-1.44.86l-5.41 2.95 5.32 3.12c.47.31.93.62 1.32.88zm7.07-8.46l.48-22.08c4.63-2.38 9.35-4.73 14.09-7 8.57.39 17.26.95 25.86 1.68 4.36 2.86 8.71 5.8 12.94 8.75-.84 6.88-1.68 13.76-2.5 20.64l-.13 1.02c-.14 1.1.14 2.16.8 3.15.52.78 1.12 1.47 1.74 2.04.05.05.11.1.16.14-.06.04-.13.07-.19.11-.8.44-1.57 1.02-2.25 1.71-.85.85-1.33 1.78-1.46 2.78l-2.13 17.85-.13 1.02c-.81 6.82-1.61 13.64-2.4 20.48-4.22 2.04-8.43 4.14-12.56 6.27-7.25-.62-14.56-1.08-21.78-1.42-3.81-2.65-7.7-5.28-11.59-7.83l.85-39.59-.49-1.95-.18-.4c-.6-.99-1.43-1.89-2.46-2.72.39-.28.76-.58 1.11-.89.57-.52 1.07-1.11 1.47-1.76l.75-2zM71.03 457.4l-10.49 14.88 13.97 9.86L85 467.27l-13.97-9.87zm2.99 21.85l-10.59-7.47 8.11-11.49 10.59 7.47-8.11 11.49zm8.01 18.09l3.88-.26 18.06-25.6-6.64-17.46-37.71-26.6-6.91 9.79 2.82 1.99c.82.58 1.47 1.19 1.94 1.83l.11.15c.42.51.74 1.09.99 1.77.09.26.11.58.05.96l-13.15 18.57c-.47.16-.92.26-1.39.3-.7.07-1.48.09-2.33.06l-5.17-.15 1.85 4.83c.31.8.55 1.55.74 2.28.1.37.14.81.13 1.3 0 .11-.01.18-.02.23l-24.15 34.23c-.26.13-.53.23-.78.23-.74-.03-1.42-.16-2.07-.39l-.18-.06c-.75-.23-1.55-.63-2.37-1.21l-2.82-1.99L0 511.92l37.71 26.6 18.68.4L83.14 501l-1.11-3.66zm-26.7 39.49l-16.95-.37-35.5-25.04 4.54-6.43 1.13.79c1 .71 2 1.21 2.96 1.5.92.33 1.83.51 2.78.54.73.03 1.49-.22 2.29-.74l24.46-34.67c.21-.3.32-.73.34-1.28.02-.7-.05-1.34-.2-1.89-.2-.78-.47-1.61-.8-2.49l-.74-1.93 2.07.06c.93.03 1.8 0 2.59-.07.61-.05 1.23-.18 1.87-.41.47-.16.82-.42 1.08-.78l13.34-18.91c.23-.95.21-1.77-.05-2.5-.32-.9-.78-1.7-1.34-2.38-.65-.87-1.46-1.64-2.46-2.35l-1.13-.79 4.52-6.41 35.5 25.05 6.03 15.84-16.86 23.9-5.48.37 1.56 5.19-25.55 36.2zm-23.25-24.22l13.97 9.86 19.32-27.38-13.97-9.86-19.32 27.38zm30.41-17.02l-16.93 24-10.59-7.47 16.93-24 10.59 7.47zm63.42 3.41l-8.02 20.25 15.9 6.29 8.02-20.25-4.76-11.21-11.14 4.92zm6.72 23.86l-12.05-4.77 6.94-17.53 8.45-3.72 3.61 8.5-6.95 17.52zm17.42-43.83l-22.11-8.75-3.96 10-12.03 5.28-6.18 15.61-.04-.02c-.42.27-.83.47-1.27.62-.67.23-1.44.44-2.27.62l-5.05 1.09 2.94 4.25c.48.7.9 1.37 1.25 2.03.2.37.37.81.48 1.28.01.04.01.06.02.09L86.4 550.09c-.21.19-.46.35-.7.4-.73.15-1.41.18-2.11.1l-.19-.02c-.78-.04-1.65-.25-2.58-.62l-3.21-1.27-4.42 11.15 26.67 10.56 13.35-33.72 12.05 4.77-13.35 33.72 26.67 10.56 4.42-11.16-3.21-1.27c-.93-.37-1.71-.81-2.31-1.31l-.15-.12c-.56-.42-1.04-.91-1.47-1.52-.14-.2-.21-.48-.23-.76l15.46-39.05c.41-.24.84-.44 1.32-.6.73-.25 1.5-.49 2.32-.71l4.44-1.21-2.41-3.92c-.44-.72-.84-1.42-1.22-2.15-.22-.41-.4-.85-.55-1.22l6.21-15.68-11.15-26.01zm2.95 42.16c.18.62.42 1.21.71 1.75.39.74.81 1.48 1.28 2.24l.96 1.57-1.78.48c-.86.23-1.67.48-2.45.75-.61.2-1.19.47-1.74.8-.38.23-.63.49-.75.8l-15.7 39.65c0 .96.21 1.71.63 2.31.55.77 1.19 1.44 1.91 1.98.83.7 1.8 1.26 2.94 1.7l1.28.51-2.89 7.31-22.82-9.04 13.35-33.72-15.9-6.29-13.35 33.72-22.82-9.04 2.89-7.31 1.28.51c1.14.45 2.23.71 3.23.76.98.11 1.9.06 2.83-.13.72-.15 1.39-.56 2.05-1.26l15.64-39.52c.13-.32.13-.73.01-1.21-.16-.65-.39-1.25-.67-1.77-.38-.72-.83-1.46-1.36-2.22l-1.18-1.7 2.02-.43c.91-.2 1.75-.43 2.5-.68.58-.19 1.15-.47 1.72-.83.41-.26.68-.58.85-.98l5.86-14.8 14.19-6.23-1.54-.61 2.89-7.31 19.38 7.67 10.47 24.45-5.9 14.89c-.12.41-.14.8-.02 1.23zm43.77-9.82l-3.62 17.84 16.89 3.43 3.62-17.84-16.89-3.43zm11.66 18.83l-12.84-2.6 2.8-13.78 12.84 2.6-2.8 13.78zm-10.48-36.88l-17.26 7.15-5.31 26.16c-.37.35-.79.66-1.29.92l-.3.18c-.28.19-.63.35-1.04.48l-7.02 2.32 6.29 3.89c1.55.96 3.17 2.02 4.78 3.14 1.41 1 2.99 2.22 4.7 3.6 1.7 1.38 3.39 2.88 5.03 4.46l.72.7 17.2 3.49-5.84 28.79-12.84-2.6 4.08-20.13-22.28 9.23-3.31 16.3 13.11 13.31 21.66 4.39 17.26-7.15 9.64-47.52L215 533.29l14.41-5.97 3.31-16.3-13.11-13.31-21.66-4.39zm29.65 32.51l-16.8 6.96 1 .2 11.9 12.08-9.2 45.36-15.66 6.49-20.42-4.14-11.9-12.08 2.87-14.14 17.67-7.32-3.72 18.35 16.89 3.43 6.66-32.84-18.64-3.78-.29-.28a83.802 83.802 0 00-5.16-4.58c-1.74-1.41-3.36-2.65-4.8-3.68-1.66-1.15-3.31-2.23-4.89-3.21l-2.51-1.56 2.81-.93c.58-.19 1.1-.44 1.54-.73l.12-.07a7.5 7.5 0 002.23-1.76l5.2-25.66 15.66-6.49 20.42 4.14 11.9 12.08-2.88 14.16zm12.09-12.29l3.44.21c1 .06 1.87.24 2.61.54l.18.07c.62.21 1.2.53 1.76.99.22.18.41.41.56.72l-1.45 22.85c-.31.39-.64.71-1.01.98-.57.43-1.23.86-1.96 1.29l-4.47 2.6 4.11 3.13c.68.52 1.28 1.03 1.82 1.55.28.27.55.62.8 1.04.05.09.08.16.1.2l-2.57 41.74c-.15.25-.33.47-.54.6-.64.36-1.29.61-1.97.75l-.19.05c-.76.2-1.65.28-2.65.21l-3.44-.21-.74 11.97 62.08 3.83 1.69-27.39-11.22-.69-.81 2.57c-.29.9-.7 1.61-1.27 2.17l-.25.28c-.44.53-1.16 1.01-2.16 1.43-1.01.43-2.4.59-4.15.48l-14.04-.87 1.81-29.32 25.82 1.59-12.01-20.77-12.58-.78.86-14.04 14.04.86c1.71.11 3.05.45 3.98 1.01 1.26.77 1.86 1.41 2.17 1.85.56.76.92 1.57 1.1 2.48l.52 2.59 11.18.69 1.69-27.39-62.08-3.83-.76 11.97zm2.67-9.78l57.95 3.57-1.43 23.26-7.53-.46-.21-1.04c-.24-1.19-.73-2.3-1.46-3.29-.58-.82-1.5-1.62-2.76-2.39-1.22-.75-2.88-1.19-4.93-1.32l-16.1-.99-1.12 18.17 13.54.83 9.52 16.47-24.04-1.48-2.06 33.45 16.1.99c2.07.13 3.78-.09 5.09-.65 1.3-.55 2.29-1.23 2.94-2.02l.1-.11c.81-.79 1.42-1.81 1.8-3.03l.33-1.03 7.54.46-1.43 23.26-57.95-3.57.48-7.84 1.38.08c1.22.07 2.34-.02 3.31-.28.96-.2 1.82-.53 2.65-1 .64-.36 1.15-.96 1.56-1.83l2.61-42.28c.02-.36-.11-.79-.38-1.26-.35-.6-.74-1.1-1.16-1.5a20.64 20.64 0 00-1.99-1.69l-1.65-1.25 1.79-1.04c.8-.47 1.53-.95 2.17-1.42.49-.36.95-.8 1.37-1.33.32-.39.48-.79.51-1.24l1.43-23.27c-.31-.85-.75-1.5-1.36-1.99-.75-.6-1.56-1.04-2.39-1.33-1.01-.41-2.11-.63-3.32-.71l-1.38-.08.48-7.82zm125.67 39.47l2.71-2.79-3.72-31.11-16.63-8.52-45.82 5.49 1.43 11.9 3.42-.41c.99-.12 1.89-.1 2.67.06l.18.03c.66.1 1.29.31 1.92.65.24.13.47.36.68.68l2.67 22.6c-.24.44-.51.81-.83 1.15-.47.51-1.04 1.06-1.69 1.61l-3.94 3.35 4.61 2.34c.76.39 1.44.78 2.07 1.2.32.21.65.51.97.88.07.08.11.15.13.18l4.98 41.59c-.1.27-.24.53-.43.69-.57.48-1.16.83-1.8 1.1l-.18.08c-.71.34-1.57.57-2.57.68l-3.42.41 1.43 11.92 45.82-5.49 14.14-12.21-5.52-46.07-3.28-1.99zm-6.23 58.29l-43.14 5.17-.93-7.82 1.37-.16c1.21-.14 2.29-.44 3.21-.87.9-.37 1.7-.85 2.42-1.46.56-.47.96-1.16 1.2-2.08l-5.04-42.13c-.04-.36-.25-.76-.6-1.18-.46-.53-.93-.96-1.42-1.27-.67-.45-1.43-.89-2.26-1.31l-1.84-.94 1.57-1.34c.71-.61 1.34-1.21 1.87-1.78.42-.44.79-.96 1.12-1.55.24-.43.33-.86.28-1.3l-2.75-22.97c-.46-.86-1.02-1.45-1.71-1.82a7.93 7.93 0 00-2.59-.87c-1.06-.21-2.18-.24-3.4-.1l-1.37.16-.93-7.79 43.14-5.16 15.08 7.73 3.48 29.04-3.83 3.94 4.64 2.81 5.27 43.98-12.84 11.07zm-24.63-46.78l3.98 33.27 16.98-2.03-3.98-33.27-16.98 2.03zm5.79 30.98l-3.49-29.17 12.87-1.54 3.49 29.16-12.87 1.55zm7.14-66.83l-16.98 2.03 2.16 18.07 16.98-2.03-2.16-18.07zm-13.01 17.81l-1.67-13.97 12.87-1.54 1.67 13.97-12.87 1.54zm125.41 23c-.93.37-1.8.58-2.58.62l-.19.02c-.7.08-1.38.04-2.11-.1-.24-.05-.48-.21-.69-.4l-15.5-39.03c.13-.46.31-.9.55-1.34.36-.69.76-1.38 1.2-2.1l2.41-3.93-4.44-1.21c-.81-.22-1.58-.46-2.36-.72-.44-.15-.88-.35-1.24-.52l-6.22-15.67L405.38 484l-22.1 8.78 3.97 9.99-5.14 12.09 6.2 15.6-.04.02c-.12.48-.28.91-.5 1.32-.33.63-.74 1.3-1.23 2l-2.93 4.25 5.05 1.08c.83.18 1.59.38 2.3.62.4.13.81.34 1.23.6.03.02.05.03.07.05l15.47 38.95c-.03.29-.09.57-.23.77-.43.61-.91 1.1-1.47 1.52l-.15.12c-.6.51-1.37.95-2.31 1.32l-3.2 1.27 4.43 11.15 26.66-10.59-13.39-33.71 12.05-4.78 13.39 33.71 26.66-10.59-4.43-11.15-3.24 1.31zm-17.87 17.78l-13.39-33.71-15.89 6.31 13.39 33.71-22.81 9.06-2.9-7.31 1.28-.51c1.14-.45 2.11-1.01 2.88-1.66.78-.59 1.42-1.26 1.97-2.03.42-.6.63-1.36.63-2.32l-15.69-39.5c-.13-.32-.4-.62-.82-.89a8.06 8.06 0 00-1.7-.83c-.76-.26-1.61-.49-2.52-.69l-2.02-.43 1.17-1.7c.53-.77.99-1.51 1.35-2.21.29-.54.52-1.13.68-1.79.12-.49.1-.92-.07-1.34l-5.86-14.75 6.06-14.26-1.54.61-2.9-7.31 19.38-7.69 24.38 10.63 5.91 14.88c.16.4.41.7.8.93.55.33 1.13.6 1.72.79.79.27 1.61.52 2.46.75l1.78.48-.96 1.57c-.46.76-.89 1.5-1.27 2.22-.3.56-.54 1.15-.72 1.77-.12.43-.12.79 0 1.1l15.74 39.63c.65.7 1.33 1.11 2.05 1.25.93.19 1.85.23 2.75.13 1.08-.06 2.17-.32 3.31-.77l1.28-.51 2.9 7.31-22.81 9.08zm-38.42-73.58l-4.75 11.21 8.04 20.24 15.89-6.31-8.04-20.24-11.14-4.9zm4.45 28.76l-6.96-17.53 3.6-8.5 8.45 3.72 6.96 17.53-12.05 4.78zm100.55-22.98l.75 2.42c.31 1 .41 1.9.3 2.76l-.02.18c-.07.84-.35 1.76-.86 2.74-.31.6-1.06 1.59-2.91 2.87l-5.55 3.85-20.41-29.41s-.04-.09-.05-.31c-.03-.41 0-.78.1-1.14.18-.68.43-1.42.74-2.22l1.9-4.81-5.17.1c-.85.02-1.64-.01-2.39-.09-.36-.03-.72-.13-1.12-.29-.12-.05-.14-.09-.17-.12l-13.01-18.76c-.03-.34.01-.63.1-.9.25-.69.58-1.26 1-1.76l.12-.15c.48-.63 1.09-1.22 1.84-1.73l2.83-1.97-6.83-9.86-30.6 21.22 6.84 9.86 2.83-1.96c.82-.57 1.62-.97 2.39-1.19l.17-.06a6 6 0 011.98-.32c.27-.03.59.07.9.22l13.01 18.84c-.01.5-.07.96-.19 1.4-.18.69-.43 1.44-.74 2.23l-1.9 4.81 5.17-.1c.84-.02 1.63.01 2.38.09.38.03.81.14 1.27.32.1.04.17.07.2.1l23.83 34.36c.04.28.04.57-.06.8-.28.69-.63 1.28-1.08 1.81l-.12.15c-.47.63-1.12 1.23-1.95 1.8l-2.83 1.96 6.84 9.86 45.21-31.36-15.64-22.55-9.1 6.31zm-19.95 44.72l-4.48-6.46 1.13-.79c1.01-.7 1.82-1.46 2.43-2.27.63-.75 1.1-1.55 1.46-2.42.28-.68.31-1.47.09-2.4l-24.14-34.81c-.21-.3-.57-.55-1.08-.75-.64-.25-1.26-.41-1.84-.46-.81-.08-1.68-.11-2.61-.1l-2.07.04.76-1.92c.34-.87.62-1.7.82-2.46.16-.59.25-1.22.26-1.9.01-.5-.11-.92-.37-1.29l-13.28-19.15c-.76-.48-1.52-.71-2.3-.72h-.02a8.1 8.1 0 00-2.68.44c-1.04.31-2.05.81-3.05 1.5l-1.13.79-4.48-6.46 27.2-18.86 4.48 6.46-1.13.79c-.93.65-1.71 1.38-2.31 2.19-.61.73-1.07 1.53-1.4 2.43-.27.73-.31 1.52-.13 2.4l13.29 19.16c.27.39.62.67 1.08.86.58.24 1.16.39 1.73.44.8.08 1.68.12 2.61.1l2.07-.04-.76 1.92c-.35.88-.62 1.7-.82 2.46-.15.56-.21 1.16-.17 1.8.04.55.17.98.39 1.3l21.61 31.16 7.25-5.03c1.77-1.23 2.97-2.45 3.58-3.63.63-1.22.99-2.4 1.08-3.52.16-1.22.03-2.45-.36-3.72l-.3-.97 6.16-4.27 13.28 19.15-41.85 29.01zm79.19-100.04l-7.79 7.88 1.19 2.24c.49.92.75 1.79.8 2.66l.01.18c.09.83-.02 1.79-.34 2.85-.19.65-.75 1.75-2.34 3.36l-4.75 4.81-25.46-25.16s-.05-.08-.11-.29c-.1-.4-.14-.77-.11-1.15.05-.68.15-1.46.32-2.31l.98-5.07-5.06 1.04c-.84.17-1.62.29-2.37.35-.36.04-.74.01-1.15-.08-.13-.03-.16-.06-.19-.09l-16.24-16.05a2.01 2.01 0 01-.06-.9c.12-.72.34-1.35.66-1.92l.09-.17c.35-.71.85-1.4 1.49-2.04l2.43-2.45-8.53-8.44-26.18 26.48 8.53 8.43 2.42-2.45c.7-.71 1.42-1.25 2.12-1.61l.16-.09a5.78 5.78 0 011.91-.68c.28-.05.58-.03.9.05l16.25 16.13c.08.49.11.95.07 1.41-.05.71-.16 1.49-.32 2.32l-.99 5.08 5.07-1.05c.83-.17 1.61-.29 2.36-.35.38-.03.82-.01 1.31.09.11.02.18.04.21.06l29.74 29.4c.09.27.14.56.09.8-.15.73-.39 1.37-.73 1.98l-.09.17c-.35.71-.88 1.42-1.59 2.14l-2.43 2.45 8.53 8.44 38.68-39.13-19.49-19.32zm-19.19 55.5l-5.59-5.53.97-.98c.86-.87 1.52-1.77 1.97-2.68.48-.85.8-1.72.99-2.65.15-.72.03-1.5-.35-2.38l-30.13-29.78c-.26-.25-.66-.44-1.2-.54-.68-.13-1.32-.17-1.9-.11-.81.07-1.67.2-2.58.38l-2.03.42.4-2.03c.18-.91.29-1.77.35-2.57.05-.61.02-1.25-.09-1.91-.08-.49-.28-.88-.6-1.2l-16.58-16.39c-.84-.33-1.63-.42-2.39-.28-.94.17-1.81.48-2.57.93-.97.5-1.86 1.17-2.72 2.04l-.97.98-5.59-5.53 23.27-23.54 5.59 5.53-.97.98c-.79.8-1.42 1.67-1.87 2.58-.47.84-.77 1.7-.93 2.65-.13.77-.03 1.55.31 2.39l16.58 16.39c.33.33.73.54 1.22.64.61.13 1.21.16 1.78.11.8-.07 1.66-.19 2.58-.38l2.02-.42-.39 2.03c-.18.93-.3 1.8-.35 2.57-.05.58.01 1.18.17 1.8.14.53.34.94.62 1.21l26.97 26.66 6.2-6.28c1.51-1.53 2.47-2.95 2.85-4.22.39-1.32.53-2.55.41-3.65-.07-1.23-.42-2.41-1.04-3.59l-.47-.9 5.27-5.33 16.57 16.39-35.78 36.19zm-449.61-38.68l-6.03-15.84-35.5-25.05-4.52 6.41 1.13.79c1 .7 1.81 1.47 2.46 2.35.56.68 1.02 1.49 1.34 2.38.26.73.28 1.55.05 2.5l-13.34 18.91c-.25.36-.61.62-1.08.78-.64.22-1.26.36-1.87.41-.78.07-1.66.1-2.59.07l-2.07-.06.74 1.93c.34.88.61 1.71.8 2.49.15.56.21 1.19.2 1.89-.02.55-.13.98-.34 1.28l-24.46 34.67c-.8.53-1.56.77-2.29.74a9.26 9.26 0 01-2.78-.54c-.96-.29-1.96-.79-2.96-1.5L7.41 505l-4.54 6.43 35.5 25.04 16.95.37 25.53-36.19-1.56-5.19 5.48-.37 16.88-23.91zm-25.98 21.74l2.17 7.22-23.91 33.9-14.64-.32-32.56-22.96 1.39-1.97c.86.5 1.71.88 2.52 1.12 1.12.4 2.31.63 3.54.68 1.4.05 2.8-.41 4.16-1.37l.2-.14 24.74-35.07c.53-.75.81-1.69.84-2.79.02-.97-.07-1.87-.29-2.66-.08-.3-.16-.61-.26-.93.32-.01.63-.04.93-.06.82-.06 1.67-.25 2.54-.55 1.02-.36 1.84-.96 2.42-1.8l13.48-19.11.14-.2.06-.23c.44-1.59.42-3.07-.06-4.39-.43-1.19-1.04-2.27-1.76-3.14-.54-.73-1.19-1.42-1.95-2.06l1.38-1.95 32.56 22.97 5.21 13.68-15.26 21.63-7.59.5zm-26.22-9.71l-21.21 30.07 18.48 13.04 22.5-31.89-17.8-12.56-1.97 1.34zm-17.37 29.4l19.32-27.38 13.97 9.86-19.32 27.38-13.97-9.86zm24.62-39.67l18.48 13.04 13.67-19.38-18.48-13.04-13.67 19.38zm28.31-5.68l-10.49 14.87-13.97-9.86 10.49-14.88 13.97 9.87zm68.71 55.68a9.03 9.03 0 01-.71-1.75c-.12-.43-.11-.82.05-1.22l5.9-14.89-10.47-24.45-19.38-7.67-2.89 7.31 1.54.61-14.19 6.23-5.86 14.8c-.17.39-.45.72-.85.98-.57.36-1.14.64-1.72.83-.75.26-1.59.49-2.5.68l-2.02.43 1.18 1.7c.53.76.99 1.51 1.36 2.22.28.52.51 1.12.67 1.77.12.48.11.89-.01 1.21l-15.64 39.52c-.66.7-1.33 1.11-2.05 1.26-.92.19-1.85.23-2.83.13-1-.06-2.09-.31-3.23-.76l-1.28-.51-2.89 7.31 22.82 9.04L112.07 534l15.9 6.29-13.35 33.72 22.82 9.04 2.89-7.31-1.28-.51c-1.14-.45-2.11-1.01-2.94-1.7a8.776 8.776 0 01-1.91-1.98c-.43-.6-.63-1.36-.63-2.31l15.7-39.65c.12-.31.37-.57.75-.8.55-.33 1.13-.6 1.74-.8.77-.27 1.59-.52 2.45-.75l1.78-.48-.96-1.57c-.5-.76-.92-1.5-1.31-2.25zm-7.03 5.63l-15.88 40.1-.01.24c-.06 1.67.32 3.09 1.14 4.24.71 1 1.56 1.88 2.45 2.54.69.58 1.49 1.1 2.38 1.55l-.88 2.24-17.69-7.01 13.35-33.72-21.03-8.33-13.35 33.72-17.69-7.01.88-2.24c.95.28 1.87.45 2.72.49 1.18.13 2.4.07 3.6-.17 1.37-.28 2.63-1.06 3.73-2.31l.16-.18 15.83-39.97c.34-.87.39-1.84.13-2.89-.22-.88-.53-1.69-.92-2.4-.15-.27-.3-.55-.47-.84.31-.09.61-.19.9-.28.79-.26 1.57-.64 2.34-1.13.87-.56 1.5-1.3 1.88-2.19l.03-.06.03-.06 5.43-13.71 17.99-7.9-2.16-1.39c-.37-.24-.7-.46-1-.68-.27-.19-.52-.35-.76-.47l.87-2.2 15.75 6.24 9.57 22.35-5.48 13.83c-.39.98-.43 1.99-.14 3 .23.82.55 1.59.93 2.3.14.27.3.55.45.83-.3.1-.6.19-.88.29-.78.26-1.54.61-2.27 1.04-.94.53-1.58 1.25-1.93 2.14zm-22.93-31.64l-9.45 23.86 21.03 8.33 9.45-23.86-6.29-14.82-14.74 6.49zm-5.87 22.32l8.02-20.25 11.14-4.91 4.76 11.21-8.02 20.25-15.9-6.3zm112.58-7.56l-11.9-12.08-20.42-4.14-15.66 6.49-5.2 25.66c-.6.71-1.35 1.3-2.23 1.76l-.12.07c-.44.29-.95.53-1.54.73l-2.81.93 2.51 1.56c1.58.98 3.23 2.06 4.89 3.21 1.45 1.03 3.06 2.27 4.8 3.68 1.74 1.42 3.48 2.96 5.16 4.58l.29.28 18.64 3.78-6.66 32.84-16.89-3.43 3.72-18.35-17.67 7.32-2.87 14.14 11.9 12.08 20.42 4.14 15.66-6.49 9.2-45.36-11.9-12.08-1-.2 16.8-6.96 2.88-14.16zm-16.8 16.93l3.24-15.97-22.3-4.52-4.72 23.25 20.54 4.17 10.27 10.43-8.62 42.49-13.53 5.6-18.77-3.81-10.27-10.43 2.28-11.27 11.52-4.77-3.24 15.97 22.3 4.52 7.76-38.25-20.56-4.17a82.904 82.904 0 00-5.05-4.45 98.176 98.176 0 00-4.96-3.79c-.99-.68-1.96-1.34-2.93-1.96 1.19-.68 2.2-1.54 3-2.57l.2-.26 5.05-24.87 13.53-5.6 18.77 3.81 10.27 10.43-2.29 11.27-11.49 4.75zm-3.63 4.02l-16.89-3.43 3.62-17.84 16.89 3.43-3.62 17.84zm71.95-10.55c2.05.13 3.71.57 4.93 1.32 1.25.77 2.17 1.57 2.76 2.39.73.99 1.22 2.1 1.46 3.29l.21 1.04 7.53.46 1.43-23.26-57.95-3.57-.48 7.85 1.38.08c1.22.08 2.31.3 3.32.71.83.28 1.64.73 2.39 1.33.61.48 1.06 1.14 1.36 1.99l-1.43 23.27c-.03.44-.19.85-.51 1.24-.42.52-.88.97-1.37 1.33-.63.48-1.36.96-2.17 1.42l-1.79 1.04 1.65 1.25c.75.57 1.41 1.13 1.99 1.69.42.4.82.91 1.16 1.5.28.48.4.9.38 1.26L245.63 592c-.41.87-.92 1.47-1.56 1.83-.82.47-1.69.8-2.65 1-.97.26-2.09.35-3.31.28l-1.38-.08-.48 7.84 57.95 3.57 1.43-23.26-7.54-.46-.33 1.03c-.39 1.22-.99 2.24-1.8 3.03l-.1.11c-.65.79-1.64 1.47-2.94 2.02-1.31.56-3.02.77-5.09.65l-16.1-.99 2.06-33.45 24.04 1.48-9.52-16.47-13.54-.83 1.12-18.17 16.1.96zm-23.18 69.04l18.86 1.16c2.5.15 4.63-.13 6.34-.86 1.68-.71 3.01-1.64 3.94-2.74.87-.86 1.57-1.9 2.08-3.09l2.7.17-1.09 17.76-52.44-3.23.15-2.4c.99-.03 1.92-.15 2.74-.37 1.16-.24 2.3-.67 3.37-1.28 1.22-.69 2.17-1.82 2.83-3.35l.09-.22 2.64-42.77c.06-.91-.2-1.86-.75-2.82a9.628 9.628 0 00-1.64-2.11c-.22-.22-.46-.43-.71-.65.27-.18.52-.37.76-.55.67-.49 1.3-1.1 1.87-1.8.68-.84 1.06-1.78 1.12-2.81l1.47-23.79-.08-.25c-.47-1.48-1.26-2.67-2.35-3.54-1-.8-2.09-1.4-3.15-1.75-.84-.34-1.75-.58-2.74-.73l.15-2.4 52.44 3.23-1.09 17.75-2.71-.17c-.36-1.19-.92-2.31-1.66-3.32-.79-1.11-1.98-2.16-3.55-3.13-1.61-.99-3.7-1.56-6.21-1.72l-18.86-1.16-1.46 23.67 14.81.91 6.21 10.75-21.66-1.33-2.42 38.94zm110.56-44.67l-4.64-2.81 3.83-3.94-3.48-29.04-15.08-7.74-43.14 5.16.93 7.79 1.37-.16c1.21-.14 2.33-.11 3.4.1.88.13 1.75.43 2.59.87.69.37 1.25.96 1.71 1.82l2.75 22.97c.05.44-.04.87-.28 1.3-.33.59-.7 1.11-1.12 1.55-.53.58-1.16 1.18-1.87 1.78l-1.57 1.34 1.84.94c.83.42 1.59.86 2.26 1.31.48.31.96.74 1.42 1.27.36.42.56.81.6 1.18l5.04 42.13c-.25.93-.64 1.61-1.2 2.08-.73.61-1.52 1.09-2.42 1.46-.91.43-1.99.72-3.21.87l-1.37.16.93 7.82 43.14-5.17 12.83-11.08-5.26-43.96zm-48.58 54.76c.97-.2 1.86-.49 2.62-.86 1.1-.45 2.14-1.08 3.09-1.87 1.07-.9 1.8-2.18 2.18-3.81l.05-.23-5.1-42.62c-.11-.91-.53-1.8-1.25-2.64-.63-.73-1.3-1.34-1.99-1.78-.26-.17-.53-.34-.81-.51.23-.23.45-.45.65-.67.57-.6 1.08-1.3 1.52-2.11.52-.95.72-1.94.6-2.96l-2.81-23.46-.11-.21c-.74-1.47-1.74-2.56-2.98-3.22-1.12-.6-2.29-.99-3.41-1.15-.88-.18-1.83-.26-2.82-.23l-.28-2.38 39.56-4.74 13.03 6.68 3.15 26.28-5.32 5.49 6.45 3.91 4.93 41.19-11.08 9.56-39.56 4.74-.31-2.4zm31.72-85.4l-22.46 2.69 2.82 23.55 22.46-2.69-2.82-23.55zm-2.41 3.07l2.16 18.07-16.97 2.04-2.16-18.07 16.97-2.04zm6.46 30.75l-21.62 2.59-.57 2.32 4.38 36.53 22.46-2.69-4.65-38.75zm-2.41 3.07l3.98 33.27-16.98 2.03-3.98-33.27 16.98-2.03zm110.39 8.41l-1.28.51c-1.14.45-2.23.71-3.31.77-.9.11-1.82.06-2.75-.13-.72-.14-1.39-.55-2.05-1.25l-15.74-39.63c-.12-.31-.12-.67 0-1.1.18-.62.41-1.21.72-1.77.38-.72.8-1.46 1.27-2.22l.96-1.57-1.78-.48c-.86-.23-1.67-.48-2.46-.75a8.57 8.57 0 01-1.72-.79c-.39-.23-.64-.52-.8-.93l-5.91-14.88-24.38-10.63-19.38 7.69 2.9 7.31 1.54-.61-6.06 14.26 5.86 14.75c.16.41.19.85.07 1.34-.16.65-.39 1.25-.68 1.79-.37.7-.82 1.44-1.35 2.21l-1.17 1.7 2.02.43c.91.2 1.75.42 2.52.69.56.18 1.14.46 1.7.83.41.27.69.57.82.89l15.69 39.5c0 .96-.21 1.72-.63 2.32-.55.77-1.19 1.44-1.97 2.03-.77.65-1.74 1.21-2.88 1.66l-1.28.51 2.9 7.31 22.81-9.06-13.39-33.71 15.89-6.31 13.39 33.71 22.81-9.06-2.9-7.33zm-39.39 21.13l-17.69 7.02-.89-2.23c.89-.45 1.67-.96 2.32-1.5.95-.71 1.79-1.59 2.51-2.59.81-1.14 1.19-2.57 1.13-4.23l-.01-.24-15.87-39.96c-.35-.87-.98-1.61-1.89-2.19-.76-.49-1.55-.87-2.32-1.12-.29-.1-.6-.2-.92-.29.16-.28.32-.55.46-.82.4-.73.71-1.54.93-2.43.25-1 .2-1.97-.13-2.89l-5.49-13.83 7.69-18.09-2.53.47c-.43.08-.83.14-1.19.19-.32.04-.61.1-.88.18l-.87-2.2 15.74-6.25 22.28 9.72 5.49 13.83c.39.97 1.05 1.74 1.95 2.28.73.43 1.49.79 2.25 1.03.29.1.59.2.9.3-.15.28-.3.55-.44.82-.39.72-.71 1.5-.94 2.31-.29 1.02-.26 1.99.09 2.87l15.83 39.86.09.22.16.18c1.1 1.26 2.36 2.03 3.73 2.31 1.21.24 2.42.3 3.52.17.9-.05 1.83-.22 2.79-.5l.89 2.23-17.68 7.02-13.39-33.71-21.02 8.35 13.4 33.71zm-20.39-82l-6.28 14.83 9.47 23.85 21.02-8.35-9.47-23.85-14.74-6.48zm4.74 35.1l-8.04-20.24 4.75-11.21 11.15 4.9 8.04 20.24-15.9 6.31zm110.29-29.11l-6.16 4.27.3.97c.4 1.27.52 2.5.36 3.72-.09 1.12-.45 2.3-1.08 3.52-.61 1.18-1.81 2.4-3.58 3.63l-7.25 5.03-21.61-31.16c-.22-.32-.35-.76-.39-1.3-.04-.64.01-1.24.17-1.8.2-.76.47-1.59.82-2.46l.76-1.92-2.07.04c-.93.02-1.81-.01-2.61-.1-.57-.05-1.15-.2-1.73-.44-.46-.19-.81-.47-1.08-.86l-13.29-19.16c-.18-.88-.13-1.67.13-2.4.33-.9.79-1.7 1.4-2.43.61-.81 1.39-1.55 2.31-2.19l1.13-.79-4.48-6.46-27.2 18.86 4.48 6.46 1.13-.79c1-.69 2-1.19 3.05-1.5.82-.29 1.73-.44 2.68-.44h.02c.78 0 1.54.24 2.3.72l13.28 19.15c.25.37.37.79.37 1.29-.01.68-.1 1.31-.26 1.9-.2.76-.48 1.59-.82 2.46l-.76 1.92 2.07-.04c.93-.02 1.8.01 2.61.1.58.05 1.2.21 1.84.46.51.2.87.46 1.08.75l24.14 34.81c.22.93.19 1.72-.09 2.4a8.98 8.98 0 01-1.46 2.42c-.6.81-1.42 1.57-2.43 2.27l-1.13.79 4.48 6.46 41.81-29-13.24-19.16zm-27.29 40.35c.77-.91 1.39-1.95 1.85-3.09.53-1.3.58-2.77.14-4.38l-.06-.23-24.42-35.21c-.52-.75-1.31-1.34-2.33-1.75-.89-.35-1.77-.57-2.59-.64-.31-.03-.63-.06-.96-.08.1-.31.18-.61.26-.9.22-.8.34-1.66.35-2.57.01-1.08-.27-2.06-.86-2.9l-13.58-19.59-.21-.14c-1.28-.87-2.64-1.32-4.04-1.33h-.03c-1.27 0-2.48.2-3.53.57-.87.25-1.74.63-2.6 1.12l-1.37-1.98 22.66-15.72 1.38 1.98c-.7.6-1.31 1.24-1.81 1.9-.77.92-1.39 1.99-1.83 3.19-.48 1.31-.54 2.74-.17 4.25l.06.25 13.59 19.59c.57.83 1.35 1.44 2.29 1.83a8.4 8.4 0 002.52.63c.31.03.63.06.96.08-.1.31-.18.62-.26.91-.23.84-.32 1.75-.25 2.7.07 1.05.36 1.96.87 2.69l23.18 33.43 9.52-6.6c2.17-1.51 3.63-3.02 4.46-4.63.79-1.54 1.26-3.08 1.37-4.49.16-1.24.09-2.53-.21-3.84l2.26-1.57 10.14 14.62-37.28 25.86-1.37-1.98c.75-.62 1.4-1.3 1.9-1.98zm77.96-89.3l-5.27 5.33.47.9c.62 1.18.97 2.36 1.04 3.59.12 1.11-.02 2.34-.41 3.65-.38 1.27-1.34 2.69-2.85 4.22l-6.2 6.28-26.97-26.66c-.28-.27-.48-.68-.62-1.21-.16-.62-.22-1.22-.17-1.8.05-.77.17-1.63.35-2.57l.39-2.03-2.02.42c-.92.19-1.78.32-2.58.38-.57.05-1.17.02-1.78-.11-.49-.1-.89-.31-1.22-.64l-16.58-16.39c-.34-.83-.44-1.62-.31-2.39.16-.95.46-1.81.93-2.65.45-.91 1.08-1.78 1.87-2.58l.97-.98-5.59-5.53-23.27 23.54 5.59 5.53.97-.98c.86-.87 1.75-1.54 2.72-2.04.76-.44 1.63-.75 2.57-.93.77-.14 1.55-.05 2.39.28l16.58 16.39c.32.31.51.71.6 1.2.11.66.15 1.3.09 1.91-.06.79-.18 1.66-.35 2.57l-.4 2.03 2.03-.42c.91-.19 1.77-.32 2.58-.38.58-.06 1.22-.02 1.9.11.54.11.94.29 1.2.54l30.13 29.78c.39.88.5 1.66.35 2.38-.19.93-.51 1.8-.99 2.65-.45.9-1.11 1.8-1.97 2.68l-.97.98 5.59 5.53 35.77-36.19-16.56-16.39zm-20.93 46.98c.63-.77 1.15-1.54 1.52-2.31.58-1.04 1.01-2.17 1.25-3.38.28-1.37.06-2.83-.66-4.33l-.1-.22-30.47-30.13c-.65-.65-1.53-1.08-2.62-1.29-.94-.18-1.85-.23-2.67-.15-.31.03-.63.06-.96.1.04-.32.07-.63.09-.94.07-.82.03-1.7-.13-2.59-.18-1.06-.65-1.97-1.38-2.69l-16.95-16.76-.24-.1c-1.42-.62-2.84-.81-4.21-.56-1.26.23-2.42.65-3.4 1.22-.8.41-1.59.94-2.35 1.58l-1.71-1.69 19.39-19.62 1.71 1.7c-.58.71-1.06 1.46-1.43 2.2-.59 1.05-1 2.22-1.21 3.48-.24 1.38-.03 2.79.61 4.21l.11.23 16.95 16.76c.71.7 1.58 1.17 2.59 1.38.88.19 1.76.24 2.59.16.31-.03.63-.06.96-.1-.04.33-.07.64-.09.94-.07.87.01 1.78.25 2.7.26 1.02.72 1.86 1.35 2.49l28.93 28.6 8.14-8.24c1.86-1.88 3.02-3.64 3.53-5.37.5-1.67.67-3.26.52-4.66-.07-1.25-.37-2.5-.91-3.74l1.93-1.96 12.65 12.51-31.9 32.27-1.68-1.7z"/>
<path d="M211.53 276.62s22.35 13.71 23.48 14.28c1.13.56-2.07 5.42-9.96 3.93s-15.48-6.36-13.52-18.21zm69.51 24.23c17.66 0 22.73-9.96 22.73-9.96s-6.95-2.73-26.49-2.73-22.52 2.73-22.52 2.73 8.62 9.96 26.28 9.96zm-18.05 41.64c-1.68 1.19-3.68 2.01-5.45 2.74-1.47.6-3.48 1.43-3.86 2.05-.71 1.14-1.59 1.37-2.19 1.37-.1 0-.19-.01-.27-.02a2.35 2.35 0 01-.49-.11c.53.85 1.22 2.17 2.06 3.81 2 3.88 3.01 3.69 6.26 3.69 3.26 0 4.01-10.7 4.63-11.33.12-.12.27-.16.42-.16-.47-1.04-.94-2.17-1.11-2.04zm53.05-5.07c0-4.38-.13-5.01-3.38-5.01-3.26 0-2.5 5.64-2.88 6.76-.38 1.13-2-1.63-5.26-1.75-3.26-.13-1.25-.88 0-2.68 1.25-1.81 2-2.07 6.01-3.2 4.01-1.13 3.13-3.38 2.13-9.14-1-5.76-4.26-4.51-4.26-4.51-4.01 0-3.51 4.76-4.63 4.76-1.13 0-2.38 1.5-2.38-1.75 0-3.26-1.5-2.13-5.51-2.13s-.38 11.27-2.63 11.27-1.79-3.01-1.79-6.01c0-3.01-1.59-2.63-6.22-2.63s-.88 11.27-3.13 11.27-2-5.26-2-8.01c0-2.76-6.26-1.63-8.64-1.63-2.38 0-.38 9.77-.88 11.72-.5 1.95-3.26-.82-3.63-6.08-.38-5.26-1-4.63-5.16-4.63s-2.86 5.89-3.36 8.64c-.5 2.76-2.5-4.51-2.5-6.26s-7.95-1.57-8.89-.63c-.94.94 0 8.96-1.38 8.96s-.88-2.83-.88-6.21-2.38-3.13-5.7-3.13c-3.32 0-.44 6.51-1.69 6.51s-2.16-2.25-2.16-5.01-2.6-1.88-4.23-1.88c-1.63 0 0 4.88-1.63 4.88s-3.51-6.89-6.15-6.76c-2.65.13-1.86 2.63-.74 4.88 1.13 2.25 6.26 6.51 7.51 8.86 1.25 2.35-3.26 6.67-3.76 9.42-.5 2.76.38 5.76 3.01 5.76s.75 2.38 5.98 2.38 4.79-4.63 4.79-6.26 2-3.01 2 1.5 1.75 4.51 5.13 4.51 2-4.38 2.25-6.14c.03-.21.07-.37.13-.47-.37-.54-.6-1.22-.82-1.86-.31-.93-.89-2.67-1.57-2.67-2.83 0-2.93.06-4.59 1.08l-.6.37c-2.26 1.37-5.66-1.61-7.7-3.77a2.687 2.687 0 01.09-3.77c1.99 2.03 4.65 3.9 5.58 3.93l.47-.29c2.26-1.39 3.09-1.69 6.75-1.69 2.93 0 4.3 2.38 5.04 4.24 1.06-.66 2.36-1.19 3.76-1.77 1.64-.67 3.34-1.37 4.63-2.29 3.76-2.67 12.15-.4 14.61.35 2.75-.2 5.57-.7 6.44-1.12.93-1.53 2.94-1.53 4.89-1.54 1.87 0 4.21-.01 5.87-1.03 4.27-2.62 6.42-2.18 7.33-1.68l1.08.59v10.24l-1.54-1.05a4.962 4.962 0 01-2.07-3.11l-.53-2.55c-.53.21-1.23.55-2.11 1.09-2.04 1.25-4.35 1.54-6.34 1.61-.6.02-1.61 6.01-2.13 6.01-.54 0-.78-5.99-1.2-5.95-.7.91-2.71 2.17-9.81 2.63l-.63 3.7-.13-3.79c-2.27-.72-4.92-1.28-7.12-1.48-1.05-.09-1.22 4.04-1.98 4.13.13.56.22 1.26.22 2.14 0 3.26-.38 7.69 3.38 7.69s4.38-1.06 4.38-2.94 2.13-1.75 3.88-1.75.63 4.69 3.38 4.69c2.76 0 4.26-.18 4.26-2.31s.75-2.38 3.76-2.38.88 4.63 2.96 4.63c2.09 0 5.68.5 5.68-1.5s-.13-2.88 2.63-2.88 1.63 4.38 2.99 4.38c1.36 0 8.28-.5 8.28-3.38s.88-2.38 3.88-2.76c3.04-.34 1.16-7.98 1.16-12.36z" fill="#FFF"/>
<path d="M82.61 46.13c2.11 5.47 4.19 10.95 6.26 16.43-2.67 3.06-5.31 6.18-7.93 9.31-2.61-6.45-5.25-12.91-7.91-19.35l-.65-1.59-1.64.59c-8.14 2.94-16.32 6.1-24.32 9.38l-1.7.7.78 1.65c2.53 5.44 5.05 10.87 7.55 16.32l.43.94c3.9 8.53 7.82 17.16 11.61 25.66l.43.93c2.41 5.39 4.79 10.77 7.15 16.16l.7 1.6 1.64-.68c7.07-2.89 14.31-5.67 21.51-8.27l1.7-.61-.64-1.65c-2.47-6.35-4.96-12.68-7.47-19.01 3.89.76 7.79 1.56 11.63 2.41 2 5.44 3.98 10.9 5.93 16.35a494.09 494.09 0 00-8.49 10.85A520.69 520.69 0 0079.02 132c-4.57-.81-9.22-1.57-13.87-2.27a2473.2 2473.2 0 00-8.84-18.77l-.45-.94c-2.61-5.48-5.24-10.96-7.9-16.45-.44-.91-1.21-1.64-2.3-2.15-.85-.4-1.72-.71-2.59-.88-.09-.01-.18-.04-.27-.06.03-.05.07-.11.09-.16.43-.76.75-1.59.99-2.47.3-1.14.19-2.23-.28-3.23l-.45-.93c-3.07-6.3-6.18-12.57-9.3-18.83 3-4.05 6.08-8.09 9.21-12.05 7.82-3.21 15.83-6.29 23.82-9.2 5.24.8 10.54 1.64 15.73 2.52zm138.04 18.34c.89 6.72 1.77 13.45 2.64 20.19l.23 1.74-1.79.21c-7.69.89-15.44 1.95-23.02 3.16l-1.76.28-.31-1.72c-1-5.78-2.02-11.55-3.05-17.33l-.18-1.01c-1.63-9.19-3.28-18.38-4.96-27.58l-.18-1.01c-1.06-5.85-2.14-11.71-3.23-17.57l-.33-1.76 1.8-.29c8.62-1.37 17.41-2.59 26.1-3.6l1.76-.2.24 1.72c.95 6.85 1.88 13.71 2.81 20.56 3.33-2.45 6.72-4.89 10.1-7.27-.63-5.78-1.26-11.57-1.91-17.37-4.85-2.06-9.78-4.06-14.68-5.98-8.53 1-17.13 2.2-25.6 3.53-4.09 3.18-8.15 6.41-12.09 9.64 1.45 6.78 2.88 13.58 4.31 20.38l.21 1.01c.23 1.07.05 2.15-.52 3.2-.45.81-.98 1.54-1.58 2.17-.04.05-.09.09-.13.14.08.04.15.07.23.11.8.36 1.58.84 2.31 1.43.94.76 1.52 1.65 1.72 2.62 1.23 5.92 2.45 11.85 3.65 17.77l.21 1.01c1.36 6.74 2.73 13.5 4.08 20.24 4.36 1.73 8.74 3.52 13.03 5.35 7.15-1.12 14.41-2.12 21.59-2.96 3.58-2.91 7.24-5.81 10.92-8.63-.59-5.74-1.19-11.48-1.8-17.23-3.59-1.66-7.19-3.33-10.82-4.95zM157.9 104.8c-1.11-.03-2.33-.21-3.57-.57-1.46-.42-2.72-1.33-3.71-2.71l-.19-.26-.08-.31c-3.27-12.16-6.67-24.6-10.12-36.99l-.21-.76 1.75-2.58c.6-.86 1.4-1.74 2.45-2.69.99-.87 2-1.68 3.01-2.38.22-.17.46-.35.7-.52l-1.71-.87 1.18-1.63c2.01-2.8 4.07-5.59 6.15-8.37-1.38-5.57-2.77-11.14-4.16-16.69l-.09-.37.07-.38a7.181 7.181 0 012.24-3.95 13.29 13.29 0 013.43-2.25c.79-.4 1.71-.75 2.7-1.05l-.3-1.29c-2.72.55-5.43 1.11-8.15 1.7-4.37.95-8.74 1.94-13.01 2.96 1.84 6.54 3.67 13.08 5.47 19.63l.22.8-.49.67c-2.75 3.81-5.47 7.7-8.09 11.56l-.86 1.27-1.4-.66c-4.35-2.04-8.83-4.05-13.28-6l-.75-.32-.24-.76c-2.07-6.49-4.16-12.98-6.27-19.48-4.29 1.22-8.6 2.48-12.85 3.78-2.6.8-5.22 1.6-7.8 2.44l.48 1.23c1.04-.24 2.07-.39 3.04-.43 1.28-.11 2.67-.03 4.06.26a7.81 7.81 0 014.05 2.26l.26.27.13.36c1.91 5.44 3.81 10.88 5.69 16.33 3.32 1.38 6.65 2.79 9.9 4.22l1.87.82-1 1.56c.36.03.7.07 1.05.11 1.2.12 2.5.33 3.81.61 1.3.3 2.48.65 3.52 1.04l14.03 5.37-10.22-1.36c3.58 11.69 7.1 23.43 10.49 34.92l.1.31-.02.32c-.14 1.68-.75 3.08-1.8 4.16-.86.9-1.84 1.66-2.89 2.25-.58.38-1.24.74-1.98 1.04l.4 1.29c2.18-.63 4.36-1.23 6.55-1.83 4.21-1.14 8.43-2.23 12.54-3.25 2.2-.54 4.4-1.07 6.61-1.58l-.33-1.31c-.81.1-1.61.12-2.38.06zm264.41-55.88c-2.24 9.23-4.42 18.31-6.59 27.4l-1.86 7.78-1.66-7.84c-2.63-12.45-5.6-24.88-8.86-37.17-2.23-8.4-4.59-16.75-7.09-24.98-4.65-.77-9.34-1.51-13.96-2.18-2.75-.4-5.5-.78-8.26-1.14l-.18 1.29c1.04.23 2.01.53 2.88.9 1.2.44 2.42 1.1 3.52 1.96 1.24.98 2.11 2.24 2.56 3.77l.11.37-.06.38c-1.13 6.88-2.25 13.77-3.36 20.66l-.24 1.39c-.3.96-.85 1.8-1.62 2.49-.67.59-1.39 1.09-2.2 1.5-.06.04-.13.06-.19.1.05.05.11.1.16.16.65.63 1.2 1.36 1.64 2.17.49.91.74 1.82.74 2.7v.14l-.03.14c-.96 5.96-1.9 11.92-2.85 17.88l-.16 1.02c-1.07 6.82-2.13 13.62-3.19 20.42l-.05.32-.16.28c-.84 1.45-1.95 2.47-3.31 3.06-1.16.48-2.36.8-3.56.94-.73.12-1.54.18-2.41.16h-.01l-.18 1.33c2.26.3 4.51.62 6.77.94 3.66.53 7.38 1.11 11.08 1.72 1.66-9.2 3.33-18.4 5.03-27.6l.19-1.01c1.68-9.1 3.38-18.2 5.09-27.29l1.4-7.45 2.09 7.29c.89 3.09 1.76 6.2 2.61 9.32 4.69 17.13 8.82 34.65 12.3 52.25 3.82.83 7.68 1.73 11.5 2.65 2.21.54 4.42 1.09 6.62 1.65l.36-1.3c-.76-.3-1.48-.65-2.15-1.05-1-.53-2-1.27-2.88-2.15-1.04-1.03-1.67-2.4-1.87-4.07l-.02-.33.08-.32c1.74-6.67 3.5-13.36 5.26-20.03l.27-1c1.53-5.81 3.08-11.61 4.64-17.41l.16-.41.72-1.22c.5-.68 1.19-1.23 2.07-1.65l1.56-.74c-1.01-1.16-1.66-2.39-1.92-3.68l-.03-.29-.05-1.32.38-1.37c1.69-6.27 3.41-12.54 5.13-18.81l.39-1.43.1-.37.25-.3a7.636 7.636 0 013.93-2.48c1.39-.36 2.79-.51 4.18-.48.91-.02 1.88.07 2.88.23l.37-1.27c-2.62-.67-5.26-1.34-7.89-1.97-4.33-1.06-8.77-2.08-13.19-3.06-.79 3.15-1.55 6.31-2.33 9.47-1.49 6.02-2.98 12.05-4.45 18.08l-.2.86zm-65.9-5.82c.05.05.11.1.16.14-.06.04-.13.07-.19.11-.8.44-1.57 1.02-2.25 1.71-.85.85-1.33 1.78-1.46 2.78l-2.13 17.85-.13 1.02c-.81 6.82-1.61 13.64-2.4 20.48-4.22 2.04-8.43 4.14-12.56 6.27-7.25-.62-14.56-1.08-21.78-1.42-3.81-2.65-7.7-5.28-11.59-7.83l.85-39.59-.49-1.95-.18-.4c-.6-.99-1.43-1.89-2.46-2.72.39-.28.76-.58 1.11-.89.57-.52 1.07-1.11 1.47-1.76l.75-2 .48-22.08c4.63-2.38 9.35-4.73 14.09-7 8.57.39 17.26.95 25.86 1.68 4.36 2.86 8.71 5.8 12.94 8.75-.84 6.88-1.68 13.76-2.5 20.64l-.13 1.02c-.14 1.1.14 2.16.8 3.15.52.78 1.12 1.47 1.74 2.04zm-11.43-26.77l-1.8-.16c-8.75-.74-17.63-1.32-26.36-1.72l-1.79-.08-3.26 68.87 1.8.08c7.69.35 15.5.86 23.21 1.51l1.79.16 1.87-20.27c.86-9.29 1.73-18.57 2.59-27.86l1.95-20.53zm-63.76 65.26c-1.63.83-3.76 1.27-6.5 1.33-3.44.09-6.87.2-10.31.33l-1.79.07-.09-1.74c-.57-12.17-1.17-24.36-1.77-36.53-.05-.96.24-1.94.85-2.9.52-.83 1.17-1.55 1.92-2.12.05-.04.1-.09.16-.12-.08-.04-.14-.09-.2-.13a9.727 9.727 0 01-2.04-1.82c-.73-.87-1.13-1.85-1.18-2.92-.37-7.3-.73-14.6-1.11-21.91l-.02-.38.15-.35c.61-1.47 1.61-2.63 2.96-3.47 1.18-.73 2.46-1.27 3.8-1.61.84-.26 1.76-.44 2.74-.56l-.05-1.32c-2.73.08-5.45.17-8.18.28-5.04.2-10.18.48-15.25.81-2.77.18-5.53.37-8.29.59l.12 1.31c1.07.01 2.09.1 3.05.28 1.3.18 2.63.6 3.9 1.19a7.59 7.59 0 013.37 3.12l.2.34.03.38c.57 7.29 1.13 14.59 1.69 21.89.08 1.1-.23 2.16-.94 3.12-.55.74-1.17 1.4-1.85 1.96-.05.04-.1.09-.16.12.06.05.14.09.2.13.76.45 1.5 1.07 2.16 1.8.82.9 1.26 1.86 1.34 2.84.92 12.15 1.82 24.32 2.7 36.49l.24 3.39-.1.3c-.5 1.59-1.36 2.83-2.55 3.67a12.81 12.81 0 01-3.2 1.65c-.68.27-1.47.49-2.32.65l.12 1.33c2.28-.18 4.55-.33 6.83-.48 4.29-.28 8.65-.51 13.01-.69 3.38-.14 6.76-.25 10.13-.33 2.69-.07 5.39-.1 8.08-.13 2.05-.02 4.1-.03 6.15-.02l.06-15.61h-2.21c-.52 1.11-1.2 2.11-2.02 2.94-.93 1.05-2.24 2.02-3.83 2.83zM447 107.05l-.2.25c-1.04 1.32-2.29 2.18-3.68 2.6-1.21.33-2.44.48-3.65.45-.74.02-1.55-.04-2.41-.17l-.38 1.28c2.19.6 4.37 1.21 6.54 1.84.75.22 1.5.45 2.25.67 13.4 3.92 26.76 8.38 39.74 13.28 1.97-4.84 3.95-9.68 5.94-14.51-.66-.25-1.31-.49-1.96-.74-.83.85-1.77 1.53-2.83 2.02-1.27.72-2.87 1.17-4.74 1.33-1.91.17-4.04-.17-6.5-1.03-5.53-1.93-11.15-3.79-16.7-5.53l-1.73-.54.56-1.67c3.58-10.6 7.28-21.39 10.99-32.05l.56-1.64 1.69.53c6.69 2.1 13.4 4.34 20.01 6.68-1.02-3.42-2.08-6.89-3.17-10.34-4.6-1.58-9.27-3.11-13.89-4.56l-1.74-.55.59-1.69c2.16-6.18 4.35-12.33 6.54-18.49l.57-1.62 1.68.52c6.37 2 12.73 4.12 18.92 6.28 2.68.94 4.8 2.14 6.27 3.57 1.48 1.43 2.45 2.77 3 4.08.49 1.11.77 2.26.83 3.42.85.33 1.7.64 2.55.97 2.07-4.82 4.16-9.63 6.26-14.44a637.592 637.592 0 00-57.31-18.73l-.4 1.27c.98.36 1.87.79 2.68 1.26 1.12.6 2.22 1.43 3.18 2.43 1.09 1.14 1.74 2.51 1.95 4.09l.05.38-.12.37c-2.29 6.97-4.56 13.96-6.82 20.94-.33 1.04-1.02 1.91-2.04 2.56-.79.52-1.62.92-2.46 1.21-.08.02-.14.05-.22.07.05.05.09.12.14.17.53.69.99 1.51 1.34 2.42.43 1.12.49 2.17.18 3.12-1.77 5.52-3.54 11.09-5.31 16.68-2.23 7.06-4.46 14.16-6.65 21.23l-.1.33zm-87.25 330.18l1.38-9.58s7.26 2.44 11.77 2.07c.59-.05-13.15 7.51-13.15 7.51zm-29.56-2.38c-6.39 3.01-11.15 13.27-11.15 13.27s3.13-10.27-.25-11.52-10.14-.75-19.79-6.26c14.03-.25 21.67-5.89 21.67-5.89s-21.79 3.51-37.57-.75c34.19-1.88 33.19-6.39 33.19-6.39s-14.03 2.25-24.15 2.25c-26.65 0-32.46-18.66-32.46-18.66l22.04-1.5c-23.54 0-47.96-7.14-57.11-17.28 22.79 5.64 34.69 4.01 34.69 4.01s-23.29-5.89-43.96-16.78c-20.66-10.9-20.79-24.67-20.79-24.67s1.88-.13 5.26-.63-14.03-17.53-14.03-17.53 6.39-1.63 4.13-11.77c-28.18-13.9-34.19-47.71-34.19-47.71s9.02 2.63 15.03 6.01 15.03-7.14-4.13-18.78c-19.16-11.65-49.59-35.69-49.59-61.61 15.78-74.76 199.25-45.46 199.25-45.46-72.13 3.63-145.02 17.16-145.02 49.97s47.34 51.85 66.37 58.11 30.31 2.76 40.58 9.73c-19.79 3.22-28.55 20.58-28.55 20.58s0-11.02 7.51-23.29c-6.76 2.25-13.02 14.53-13.27 22.79-3.26-2.76-4.82-9.77.25-16.53-5.51 1.75-8.01 8.77-8.01 8.77s-13.27-23.04-24.3-23.04c-11.02 0-14.53 6.01-17.53 8.77 5.51 0 7.01-1.75 11.02-1.5 8.01.75 17.78 10.52 20.79 17.53-13.02-3.51-20.54-13.02-20.54-13.02s.75 1.5.5 11.27 5.76 22.29 14.03 22.29 16.78-2.25 24.55-7.26c6.76 16.78 12.77 14.24 33.56 14.24 20.79 0 27.3-14.49 31.06-14.49 5.26 0 8.52 3.76 8.52 3.76s-5.51-.25-9.02 3.51-10.02 7.22-18.53 11.27c11.77 0 16.28-5.01 22.29-9.77 6.01-4.76 12.02-4.51 12.02-4.51s-15.03-15.03-48.09-17.28c8.01-8.01 12.27-11.52 31.56-11.52s23.54 4.51 30.81 4.51c7.26 0 4.26-2 2.25-4.01-2-2 20.04-1.25 20.04-1.25s-1.25 16.78-2 21.29c-.75 4.51-6.51 4.76-19.54 7.76 4.76 1.75 19.54 0 19.54 0s-1.5 26.55-6.01 26.55c-17.03 0-21.54 14.28-21.54 14.28s11.77-3.01 21.54-.75c-1.25 9.02-20.54 10.02-20.54 10.02s4.01 3.01 18.28 2c-1 16.53-23.79 24.3-41.58 24.3s-15.53-3.76-42.33-3.76c-26.8 0-27.8 1.75-40.83-4.51 8.01 11.27 11.27 7.76 25.3 7.76 14.03 0 14.78 6.26 26.3 7.26 11.52 1 37.07-1 51.6-3.26-6.89 6.51-9.77 7.01-18.66 11.15 10.64-.75 16.66-3.88 17.03-2.13-4.13 22.17-37.07 20.16-37.07 20.16s15.78 2.25 25.55-1.5c9.77-3.76 11.02-3.38 11.02.88s5.64 20.66 9.39 21.29 0 6.23-6.39 9.23zm-109.45-73.63c4.51-2.88 7.33-3.07 12.21-3.07h53.16c10.71 0 27.8 5.68 31.93 4.62 4.13-1.05 2.44-14.77 2.63-22.47.19-7.7 1.69-29.12-2.82-28.55-4.51.56-7.89 4.13-14.09 4.13s-20.48-.19-21.41 2.07c-.94 2.25.56 3.01-7.51 3.01-8.08 0-60.86 1.13-62.55 0-1.69-1.13-4.38-3.57-1.06-9.58.99-3.74-2.13-4.8-2.13-4.8s-2.82 8.93-6.57 13.63c.94 3.94 6.57 2.25 6.57 5.45 0 3.19 3.01 15.97 3.76 12.59.75-3.38 3.38-12.21 5.07-9.02 1.69 3.19 3.94 6.2 3.94 14.84s-.38 13.15-3.76 15.59l-3.38 2.44s1.5 2 6.01-.88zm141.64 93.29c1.31-7.7-6.39-10.33-9.02-10.9-2.63-.56 4.7-18.6 3.76-18.41-.94.19-6.01.75-10.33 0 0 0-2.82 15.97-5.07 16.16-2.25.19-11.18-2.44-12.54 7.89-1.36 10.33 5.4 12.77 16.86 14.65 11.45 1.88 15.02-1.68 16.34-9.39zm3.95 9.89c-1.12 1.24-4.14 4.77-15.04 7.58-10.9 2.82 11.83 3.38 7.33 3.94-4.51.56-11.27.19-12.86 8.64s-6.3 14.84-2.92 13.71c3.38-1.13 32.69-26.3 36.99-28.37 4.3-2.07-5.99-.75-5.99-.75s1.88-1.31 8.83-3.94 6.95-9.58 6.95-9.58-8.08 2.82-12.96 5.26c-4.89 2.45-9.21 2.26-10.33 3.51zm67.11-348.34l-3.25-.88-3.28-.84c-2.75-.7-5.5-1.39-8.26-2.06-4.18-1.02-8.39-1.99-12.53-2.88l-2.3-.5-.45-2.26a737.22 737.22 0 00-9.39-41.45L357.12 352.7l12.27 8.52c16.8-73.84 58.33-194.73 74.39-242.23-.72-.21-1.43-.44-2.15-.64-2.72-.78-5.45-1.55-8.19-2.29zm-16.4-68.18l.24-.99c1.35-5.55 2.73-11.09 4.1-16.64-5.58.65-10 2.45-13.51 4.89 2.21 8.23 4.3 16.52 6.24 24.85.98-4.04 1.96-8.08 2.93-12.11zM255.68 187.64c75.89-6.26 114.71 10.77 114.71 10.77v-13.53s-16.78-6.76-56.61-6.76c-39.82 0-58.1 9.52-58.1 9.52zm-7.33 211.08c-10.33-.38-18.03-4.13-22.35-5.45-4.32-1.31-6.76-8.83-12.4-8.83-5.64 0-9.77 6.57-10.71 8.83-.94 2.25-6.01 0-15.22-2.25-19.35-4.32-28.74-11.27-31.93-8.74-5.82 5.73-1.31 9.67 10.9 13.81 12.21 4.13 16.91 8.64 15.59 9.2-1.31.56-9.58-4.51-15.22-6.39-5.64-1.88-17.85-1.5-18.78 4.88-.94 6.39 21.41 4.51 27.43 4.51 6.01 0 8.83 3.94 7.89 5.07-.94 1.13-.94-2.07-4.32-2.82-6.39-.38-21.23-1.13-21.23 5.26s24.23 4.32 32.5 5.07 12.4 4.32 19.35 4.32 6.39-2.06 6.57-5.73c.19-3.66 11.65 15.69 18.41 10.43s-8.08-11.08-1.13-15.03c6.95-3.94 17.09-5.82 17.09-5.82 3.43-.75 7.89-9.94-2.44-10.32zm119.47 57.3s0 6.01 2.82 5.82 18.97-15.97 18.97-15.97l-1.88-1.07-19.91 11.22zm80.72-214.53c0-24.55-25.55-35.32-25.55-35.32l-24.3 76.89c0 .01 49.85-17.02 49.85-41.57zm-21.57-211.5c-1.49 6.02-2.98 12.05-4.45 18.08l-.21.85c-2.24 9.23-4.42 18.31-6.59 27.4l-1.86 7.78-1.66-7.84c-2.63-12.45-5.6-24.88-8.86-37.17-3.76 4.12-5.94 8.98-7.2 13.13 4.69 17.13 8.82 34.65 12.3 52.25 3.82.83 7.68 1.73 11.5 2.65 2.21.54 4.42 1.09 6.62 1.65l.36-1.3c-.76-.3-1.48-.65-2.15-1.05-1-.53-2-1.27-2.88-2.15-1.04-1.03-1.67-2.4-1.87-4.07l-.02-.31.08-.32c1.74-6.67 3.5-13.36 5.26-20.03l.27-1c1.53-5.81 3.08-11.61 4.64-17.41l.16-.41.72-1.22c.5-.68 1.19-1.23 2.07-1.65l1.56-.74c-1.01-1.16-1.66-2.39-1.92-3.68l-.03-.29-.05-1.32.38-1.37c1.69-6.27 3.41-12.54 5.13-18.81-1.84-.58-3.83-1.02-6.02-1.29-1.85-.23-3.6-.33-5.28-.36zm11.23 22.46l.01.17c.14.41.44.87.89 1.34l.25.29c.27.38.57.69.95.99l5.02 4.18-6.32 1.84c-.66.19-1.24.38-1.74.55l-1.65.78-.04-.03-.2.35c-1.51 5.65-3.03 11.31-4.53 16.96l-.27 1c-1.7 6.4-3.39 12.83-5.07 19.25.1.31.21.43.26.47.51.52 1.09.95 1.71 1.28l.08.04c.74.45 1.55.79 2.48 1.03l3.24.84.08.01.18.04 3.19.87c.95.27 1.86.39 2.66.37.87.01 1.54-.07 2.27-.27.17-.05.34-.15.52-.31 3.8-12.25 7.72-24.67 11.65-36.96a4.33 4.33 0 00-.59-1.09c-.45-.6-.98-1.21-1.59-1.84l-4.24-4.37 5.98-1.45c.87-.21 1.69-.45 2.41-.71.16-.05.32-.12.47-.2-.83-10.09-4.33-19.21-12.97-24.1-1.65 6-3.29 12.01-4.92 18.02l-.17.66zm8.8 54.6l-.2.25c-1.04 1.32-2.29 2.18-3.68 2.6-1.21.33-2.44.48-3.65.45-.74.02-1.55-.04-2.41-.17l-.38 1.28c2.19.6 4.37 1.21 6.54 1.84.75.22 1.5.45 2.25.67 2.4-7.12 4-11.99 4.57-14 .91-3.25 2.39-8.4 3.7-14.46-2.23 7.06-4.46 14.16-6.65 21.23l-.09.31zm-84.47 333.38c10.39 5.07 9.05 10.52 9.05 10.52s14.65-7.14 19.91-11.08 5.64-9.2 5.64-9.2h-18.6c0-.01-9.28 8.63-16 9.76zm29.9-133.86l22.54-17.74s-10.02-2.5-16.28 2.25c-6.26 4.76-6.26 15.49-6.26 15.49zm52.23 59.65c-20.85-9.39-24.23-4.51-31-10.14-6.76-5.64-12.77-13.34-25.36-13.34-6.01 0-9.58 5.38-10.71 18.47-.19 6.7-.44 9.52-.44 9.52s26.8-4.51 37.82-1.75c-10.02 1.75-41.33 16.53-41.83 14.53-.5-2 1.53-11.08-9.27-17.19-10.8-6.11-12.21-6.48-14.46-4.41-2.25 2.07-1.03 4.7 3.94 6.11 4.98 1.41 5.17 3.84 2.72 4.22-2.44.38-13.24-8.27-18.13 0-4.88 8.27-.19 8.93 1.88 10.52 2.07 1.6 8.45-1.6 7.61 2.44-.85 4.04-11.83-1.13-15.22 2.82-3.38 3.94-5.45 16.53 2.07 16.53 3.85 0 5.64-2.44 6.67-4.32 1.03-1.88 2.63-1.41 2.63.56s.85 7.98-3.1 7.98c-3.94 0-8.08-1.5-8.08 5.54s10.43 7.51 48.93 7.51c38.51 0 65.94-21.98 74.01-27.99 8.1-6 10.17-18.21-10.68-27.61zM82.17 490.42l14.05-19.92-4.59-12.06-27.12-19.14c.2.41.38.85.54 1.29.63 1.74.66 3.64.11 5.65l-.16.57-13.83 19.6c-.84 1.19-2 2.06-3.43 2.56-.55.19-1.09.34-1.63.45.07.59.1 1.2.09 1.84-.04 1.53-.45 2.85-1.22 3.94l-24.95 35.36-.49.34c-1.74 1.22-3.56 1.82-5.43 1.74-.42-.01-.84-.05-1.26-.1l27.11 19.12 12.91.28 22.7-32.17-2.63-8.74 9.23-.61zm-12.3-39.75l21.86 15.42-16.06 22.76-21.86-15.42 16.06-22.76zM47.22 529.2l-21.86-15.42 22.62-32.06 3.47-2.36 20.66 14.57-24.89 35.27zm.76-47.49l-22.62 32.06 21.86 15.42 24.88-35.27-20.66-14.57-3.46 2.36zm-1.26 44.6l-18.48-13.04 21.21-30.07 1.97-1.34 17.8 12.56-22.5 31.89zm45.01-60.21l-21.86-15.42-16.06 22.76 21.86 15.42 16.06-22.76zm-35.03 6.84l13.67-19.38 18.48 13.04-13.67 19.38-18.48-13.04zm26.59 19.47l15.26-21.63-5.21-13.68-32.56-22.97-1.38 1.95c.76.65 1.41 1.33 1.95 2.06.72.87 1.33 1.95 1.76 3.14.48 1.33.5 2.8.06 4.39l-.06.23-.14.2-13.48 19.11c-.59.84-1.4 1.44-2.42 1.8-.87.3-1.72.48-2.54.55-.3.03-.61.05-.93.06.1.32.18.62.26.93.21.79.31 1.69.29 2.66-.03 1.11-.31 2.04-.84 2.79l-24.74 35.07-.2.14c-1.37.96-2.77 1.42-4.16 1.37-1.24-.04-2.43-.27-3.54-.68-.81-.24-1.66-.62-2.52-1.12l-1.39 1.97 32.56 22.97 14.64.32 23.91-33.9-2.17-7.22 7.59-.51zm-30.42 39.54l-12.91-.28-27.11-19.12c.41.05.83.09 1.26.1 1.86.07 3.68-.52 5.43-1.74l.49-.34 24.95-35.36c.77-1.09 1.18-2.41 1.22-3.94.02-.64-.01-1.26-.09-1.84.54-.11 1.08-.26 1.63-.45 1.44-.5 2.59-1.36 3.43-2.56L65 446.81l.16-.58c.56-2.01.52-3.91-.11-5.65-.16-.44-.34-.87-.54-1.29l27.12 19.13 4.59 12.06-14.05 19.92-9.23.62 2.63 8.74-22.7 32.19zm100.86-26.8l-8.89-20.77-6.87-2.72-20.65 9.07-5.11 12.91c-.01.03-.02.05-.03.08l-.02.05c-.54 1.29-1.47 2.38-2.68 3.17-.48.31-.98.59-1.47.82.2.51.37 1.04.51 1.6.37 1.49.3 2.88-.21 4.16l-15.96 40.3-.39.45c-1.41 1.6-3.04 2.6-4.87 2.97-.41.08-.81.15-1.22.19l10.14 4.01 13.35-33.72 24.87 9.85-13.35 33.72 10.14 4.01a15 15 0 01-.76-.98c-1.08-1.52-1.59-3.37-1.51-5.5l.02-.6 16.01-40.43c.52-1.3 1.47-2.4 2.77-3.17.43-.26.87-.49 1.32-.7-.19-.46-.35-.94-.49-1.43a6.67 6.67 0 01.21-4.32l5.14-13.02zm-17.23 26.66l-24.87-9.85 10.52-26.57 17.43-7.69 7.45 17.53-10.53 26.58zm-14.35-36.43l-10.52 26.57 24.87 9.85 10.52-26.57-7.45-17.53-17.42 7.68zm13.19 33.74l-21.03-8.33 9.45-23.86 14.74-6.5 6.29 14.82-9.45 23.87zm20.63-24l-9.57-22.35-15.75-6.24-.87 2.2c.24.12.49.28.76.47.3.21.63.44 1 .68l2.16 1.39-17.99 7.9-5.43 13.71-.03.06-.03.06c-.38.9-1.02 1.63-1.88 2.19-.77.49-1.55.88-2.34 1.13-.29.1-.59.19-.9.28.17.28.32.56.47.84.39.71.7 1.53.92 2.4.26 1.06.22 2.03-.13 2.89L90.53 552.7l-.16.18c-1.1 1.25-2.35 2.03-3.73 2.31-1.21.25-2.42.3-3.6.17-.84-.04-1.76-.21-2.72-.49l-.88 2.24 17.69 7.01 13.35-33.72 21.03 8.33-13.35 33.72 17.69 7.01.88-2.24c-.89-.45-1.69-.97-2.38-1.55-.89-.67-1.74-1.54-2.45-2.54-.81-1.14-1.19-2.57-1.14-4.24l.01-.24 15.88-40.1c.35-.89.99-1.61 1.9-2.15.72-.43 1.49-.78 2.27-1.04.29-.1.58-.2.88-.29-.16-.28-.31-.56-.45-.83-.38-.7-.7-1.48-.93-2.3-.29-1.01-.25-2.02.14-3l5.51-13.82zm-7.61 17.4c.14.49.3.97.49 1.43-.45.21-.9.44-1.32.7-1.29.77-2.25 1.87-2.77 3.17l-16.01 40.43-.02.6c-.07 2.13.44 3.99 1.51 5.5.24.34.49.66.76.98l-10.14-4.01 13.35-33.72-24.87-9.85-13.35 33.72-10.14-4.01c.41-.05.81-.11 1.22-.19 1.83-.37 3.46-1.37 4.87-2.97l.39-.45 15.96-40.3c.5-1.27.58-2.67.21-4.16-.14-.55-.31-1.09-.51-1.6.5-.24.99-.51 1.47-.82 1.22-.79 2.14-1.88 2.68-3.17l.02-.05c.01-.02.02-.05.03-.08l5.11-12.91 20.65-9.07 6.87 2.72 8.89 20.77-5.16 13.04c-.53 1.36-.6 2.86-.19 4.3zm65.31 6.1l3.24-15.97-22.3-4.52-4.72 23.25 20.54 4.17 10.27 10.43-8.62 42.49-13.53 5.6-18.77-3.81-10.27-10.43 2.28-11.27 11.52-4.77-3.24 15.97 22.3 4.52 7.76-38.25-20.56-4.17a82.904 82.904 0 00-5.05-4.45 98.176 98.176 0 00-4.96-3.79c-.99-.68-1.96-1.34-2.93-1.96 1.19-.68 2.2-1.54 3-2.57l.2-.26 5.05-24.87 13.53-5.6 18.77 3.81 10.27 10.43-2.29 11.27-11.49 4.75zm83.72-18.71l-1.09 17.75-2.71-.17c-.36-1.19-.92-2.31-1.66-3.32-.79-1.11-1.98-2.16-3.55-3.13-1.61-.99-3.7-1.56-6.21-1.72l-18.86-1.16-1.46 23.67 14.81.91 6.21 10.75-21.66-1.33-2.4 38.95 18.86 1.16c2.5.15 4.63-.13 6.34-.86 1.68-.71 3.01-1.64 3.94-2.74.87-.86 1.57-1.9 2.08-3.09l2.7.17-1.09 17.76-52.44-3.23.15-2.4c.99-.03 1.92-.15 2.74-.37 1.16-.24 2.3-.67 3.37-1.28 1.22-.69 2.17-1.82 2.83-3.35l.09-.22 2.64-42.77c.06-.91-.2-1.86-.75-2.82a9.628 9.628 0 00-1.64-2.11c-.22-.22-.46-.43-.71-.65.27-.18.52-.37.76-.55.67-.49 1.3-1.1 1.87-1.8.68-.84 1.06-1.78 1.12-2.81l1.47-23.79-.08-.25c-.47-1.48-1.26-2.67-2.35-3.54-1-.8-2.09-1.4-3.15-1.75-.84-.34-1.75-.58-2.74-.73l.15-2.4 52.42 3.22zm69.4 38.21l-6.45-3.91 5.32-5.49-3.15-26.28-13.03-6.68-39.56 4.74.28 2.38c1-.03 1.94.05 2.82.23 1.12.17 2.29.56 3.41 1.15 1.24.67 2.24 1.75 2.98 3.22l.11.21 2.81 23.46c.12 1.01-.08 2.01-.6 2.96-.44.8-.95 1.51-1.52 2.11-.2.22-.42.45-.65.67.28.17.55.34.81.51.69.45 1.36 1.05 1.99 1.78.72.84 1.14 1.73 1.25 2.64l5.1 42.62-.05.23c-.37 1.63-1.11 2.91-2.18 3.81-.95.79-1.99 1.42-3.09 1.87-.77.36-1.65.65-2.62.86l.29 2.4 39.56-4.74 11.08-9.56-4.91-41.19zm-36.74-29.61l22.46-2.69 2.82 23.55-22.46 2.69-2.82-23.55zm4.88 33.72l21.62-2.59 4.64 38.75-22.46 2.69-4.38-36.53.58-2.32zm128.04 12.41c-.96.29-1.89.45-2.79.5-1.11.13-2.32.07-3.52-.17-1.37-.27-2.63-1.05-3.73-2.31l-.16-.18-.09-.22-15.83-39.86c-.35-.89-.38-1.85-.09-2.87.23-.81.55-1.59.94-2.31.14-.27.29-.54.44-.82-.31-.1-.6-.2-.9-.3-.76-.25-1.53-.6-2.25-1.03a4.525 4.525 0 01-1.95-2.28l-5.49-13.83-22.28-9.72-15.74 6.25.87 2.2c.27-.08.55-.14.88-.18.36-.05.75-.11 1.19-.19l2.53-.47-7.69 18.09 5.49 13.83c.34.92.38 1.89.13 2.89-.22.88-.53 1.7-.93 2.43-.14.27-.29.54-.46.82.32.09.62.19.92.29.77.25 1.55.63 2.32 1.12.91.59 1.54 1.32 1.89 2.19l15.87 39.96.01.24c.06 1.67-.32 3.09-1.13 4.23-.71 1.01-1.56 1.88-2.51 2.59-.65.55-1.43 1.05-2.32 1.5l.89 2.23 17.69-7.02-13.39-33.71 21.02-8.35 13.39 33.71 17.68-7.02-.9-2.23zm-55.02-25.71l-9.47-23.85 6.28-14.83 14.74 6.48 9.47 23.85-21.02 8.35zm121.29-14.23l-37.28 25.86-1.37-1.98c.76-.64 1.41-1.31 1.92-1.99.77-.91 1.39-1.95 1.85-3.09.53-1.3.58-2.77.14-4.38l-.06-.23-24.42-35.21c-.52-.75-1.31-1.34-2.33-1.75-.89-.35-1.77-.57-2.59-.64-.31-.03-.63-.06-.96-.08.1-.31.18-.61.26-.9.22-.8.34-1.66.35-2.57.01-1.08-.27-2.06-.86-2.9l-13.58-19.59-.21-.14c-1.28-.87-2.64-1.32-4.04-1.33h-.03c-1.27 0-2.48.2-3.53.57-.87.25-1.74.63-2.6 1.12l-1.37-1.98 22.66-15.72 1.38 1.98c-.7.6-1.31 1.24-1.81 1.9-.77.92-1.39 1.99-1.83 3.19-.48 1.31-.54 2.74-.17 4.25l.06.25 13.59 19.59c.57.83 1.35 1.44 2.29 1.83a8.4 8.4 0 002.52.63c.31.03.63.06.96.08-.1.31-.18.62-.26.91-.23.84-.32 1.75-.25 2.7.07 1.05.36 1.96.87 2.69l23.18 33.43 9.52-6.6c2.17-1.51 3.63-3.02 4.46-4.63.79-1.54 1.26-3.08 1.37-4.49.16-1.24.09-2.53-.21-3.84l2.26-1.57 10.12 14.63zm53.9-51l-31.9 32.27-1.71-1.69c.63-.77 1.15-1.54 1.52-2.31.58-1.04 1.01-2.17 1.25-3.38.28-1.37.06-2.83-.66-4.33l-.1-.22-30.47-30.13c-.65-.65-1.53-1.08-2.62-1.29-.94-.18-1.85-.23-2.67-.15-.31.03-.63.06-.96.1.04-.32.07-.63.09-.94.07-.82.03-1.7-.13-2.59-.18-1.06-.65-1.97-1.38-2.69l-16.95-16.76-.24-.1c-1.42-.62-2.84-.81-4.21-.56-1.26.23-2.42.65-3.4 1.22-.8.41-1.59.94-2.35 1.58l-1.71-1.69 19.39-19.62 1.71 1.7c-.58.71-1.06 1.46-1.43 2.2-.59 1.05-1 2.22-1.21 3.48-.24 1.38-.03 2.79.61 4.21l.11.23L520.67 449c.71.7 1.58 1.17 2.59 1.38.88.19 1.76.24 2.59.16.31-.03.63-.06.96-.1-.04.33-.07.64-.09.94-.07.87.01 1.78.25 2.7.26 1.02.72 1.86 1.35 2.49l28.93 28.6 8.14-8.24c1.86-1.88 3.02-3.64 3.53-5.37.5-1.67.67-3.26.52-4.66-.07-1.25-.37-2.5-.91-3.74l1.93-1.96 12.68 12.5z" fill="#F7941D"/>
</svg>
